<svg width="112" height="114" viewBox="0 0 112 114" fill="none" xmlns="http://www.w3.org/2000/svg">
<g filter="url(#filter0_d_977_38175)">
<path fill-rule="evenodd" clip-rule="evenodd" d="M14.0682 45.5612C13.6027 46.7122 13.7727 48.0559 14.5783 49.0661L17.5894 52.842C18.2987 53.7313 18.533 54.9092 18.2181 56.0023L16.8811 60.6431C16.4277 62.2167 17.1228 63.8948 18.5562 64.687L22.7831 67.0231C23.7786 67.5734 24.4459 68.572 24.5732 69.7023L25.114 74.5015C25.2973 76.1289 26.5817 77.4132 28.2091 77.5966L33.0082 78.1373C34.1386 78.2647 35.1372 78.9319 35.6874 79.9275L38.0235 84.1544C38.8157 85.5877 40.4938 86.2828 42.0675 85.8294L46.7082 84.4925C47.8013 84.1776 48.9792 84.4119 49.8686 85.1211L53.6444 88.1322C54.9248 89.1533 56.7412 89.1533 58.0216 88.1322L61.7974 85.1211C62.6868 84.4119 63.8647 84.1776 64.9577 84.4925L69.5985 85.8294C71.1722 86.2828 72.8503 85.5877 73.6425 84.1544L75.9786 79.9275C76.5288 78.9319 77.5274 78.2647 78.6578 78.1373L83.4569 77.5966C85.0843 77.4132 86.3687 76.1289 86.552 74.5015L87.0928 69.7023C87.2201 68.572 87.8874 67.5734 88.8829 67.0231L93.1098 64.687C94.5432 63.8948 95.2383 62.2167 94.7849 60.6431L93.4479 56.0023C93.133 54.9092 93.3673 53.7313 94.0765 52.842L97.0877 49.0661C97.8933 48.0559 98.0633 46.7122 97.5977 45.5612H14.0682Z" fill="#635F60"/>
<path d="M53.6454 3.86775C54.9258 2.84667 56.7422 2.84667 58.0226 3.86775L61.7984 6.87889C62.6878 7.58812 63.8657 7.82242 64.9587 7.50751L69.5995 6.17055C71.1732 5.71718 72.8513 6.41226 73.6434 7.8456L75.9796 12.0725C76.5298 13.0681 77.5284 13.7353 78.6588 13.8627L83.4579 14.4034C85.0853 14.5868 86.3696 15.8711 86.553 17.4985L87.0938 22.2977C87.2211 23.428 87.8883 24.4266 88.8839 24.9768L93.1108 27.313C94.5442 28.1052 95.2392 29.7832 94.7859 31.3569L93.4489 35.9977C93.134 37.0908 93.3683 38.2686 94.0775 39.158L97.0887 42.9339C98.1097 44.2143 98.1097 46.0306 97.0887 47.311L94.0775 51.0869C93.3683 51.9762 93.134 53.1541 93.4489 54.2472L94.7859 58.888C95.2392 60.4616 94.5442 62.1397 93.1108 62.9319L88.8839 65.268C87.8883 65.8183 87.2211 66.8168 87.0938 67.9472L86.553 72.7464C86.3696 74.3737 85.0853 75.6581 83.4579 75.8415L78.6588 76.3822C77.5284 76.5096 76.5298 77.1768 75.9796 78.1724L73.6434 82.3993C72.8513 83.8326 71.1732 84.5277 69.5995 84.0743L64.9587 82.7374C63.8657 82.4225 62.6878 82.6568 61.7984 83.366L58.0226 86.3771C56.7421 87.3982 54.9258 87.3982 53.6454 86.3771L49.8695 83.366C48.9802 82.6568 47.8023 82.4225 46.7092 82.7374L42.0685 84.0743C40.4948 84.5277 38.8167 83.8326 38.0245 82.3993L35.6884 78.1724C35.1381 77.1768 34.1396 76.5096 33.0092 76.3822L28.2101 75.8415C26.5827 75.6581 25.2983 74.3737 25.115 72.7464L24.5742 67.9472C24.4468 66.8168 23.7796 65.8183 22.784 65.268L18.5572 62.9319C17.1238 62.1397 16.4287 60.4616 16.8821 58.888L18.2191 54.2472C18.534 53.1541 18.2997 51.9762 17.5904 51.0869L14.5793 47.311C13.5582 46.0306 13.5582 44.2143 14.5793 42.9339L17.5904 39.158C18.2997 38.2686 18.534 37.0908 18.2191 35.9977L16.8821 31.3569C16.4287 29.7832 17.1238 28.1052 18.5572 27.313L22.784 24.9768C23.7796 24.4266 24.4469 23.428 24.5742 22.2977L25.115 17.4985C25.2983 15.8711 26.5827 14.5868 28.2101 14.4034L33.0092 13.8627C34.1396 13.7353 35.1381 13.0681 35.6884 12.0725L38.0245 7.8456C38.8167 6.41226 40.4948 5.71718 42.0685 6.17055L46.7092 7.50751C47.8023 7.82242 48.9802 7.58812 49.8695 6.87889L53.6454 3.86775Z" fill="url(#paint0_linear_977_38175)"/>
<ellipse cx="55.834" cy="45.1224" rx="32.9082" ry="32.9082" transform="rotate(-180 55.834 45.1224)" fill="url(#paint1_linear_977_38175)"/>
<circle cx="55.834" cy="46" r="33" transform="rotate(-180 55.834 46)" fill="url(#paint2_linear_977_38175)"/>
<g filter="url(#filter1_i_977_38175)">
<path d="M55.834 77C72.9548 77 86.834 63.1208 86.834 46C86.834 28.8792 72.9548 15 55.834 15C38.7132 15 24.834 28.8792 24.834 46C24.834 63.1208 38.7132 77 55.834 77Z" fill="#181A32"/>
</g>
<g opacity="0.32" filter="url(#filter2_f_977_38175)">
<path d="M45.6556 61.465C43.8997 61.465 42.5799 61.0234 41.6963 60.1401C40.8127 59.2569 40.3709 57.9321 40.3709 56.1656V52.7176C40.3709 52.5138 40.2916 52.3326 40.133 52.1741L37.7031 49.7452C36.457 48.4996 35.834 47.2541 35.834 46.0085C35.834 44.7629 36.457 43.5117 37.7031 42.2548L40.133 39.8259C40.2916 39.6787 40.3709 39.4975 40.3709 39.2824V35.8344C40.3709 34.0566 40.8071 32.7318 41.6794 31.8599C42.563 30.988 43.8884 30.552 45.6556 30.552H49.105C49.3202 30.552 49.5015 30.4728 49.6488 30.3142L52.0957 27.9023C53.3418 26.6341 54.5822 26 55.817 26C57.0631 26 58.3149 26.6285 59.5723 27.8854L62.0192 30.3142C62.1665 30.4728 62.3477 30.552 62.563 30.552H66.0124C67.7683 30.552 69.088 30.9936 69.9716 31.8769C70.8552 32.7488 71.297 34.0679 71.297 35.8344V39.2824C71.297 39.4975 71.3763 39.6787 71.5349 39.8259L73.9648 42.2548C75.2109 43.5117 75.834 44.7629 75.834 46.0085C75.834 47.2541 75.2109 48.4996 73.9648 49.7452L71.5349 52.1741C71.3763 52.3326 71.297 52.5138 71.297 52.7176V56.1656C71.297 57.9321 70.8552 59.2569 69.9716 60.1401C69.0993 61.0234 67.7796 61.465 66.0124 61.465H62.563C62.3477 61.465 62.1665 61.5386 62.0192 61.6858L59.5723 64.1147C58.3262 65.3716 57.0801 66 55.834 66C54.5879 66 53.3418 65.3716 52.0957 64.1147L49.6488 61.6858C49.5015 61.5386 49.3202 61.465 49.105 61.465H45.6556ZM53.9818 54.7389C54.4349 54.7389 54.8541 54.6313 55.2393 54.4161C55.6357 54.1897 55.9699 53.8896 56.2418 53.5159L64.0413 41.983C64.2225 41.7226 64.3528 41.4621 64.4321 41.2017C64.5114 40.9299 64.5511 40.6752 64.5511 40.4374C64.5511 39.7919 64.3018 39.2484 63.8034 38.8068C63.3163 38.3652 62.7442 38.1444 62.0872 38.1444C61.2602 38.1444 60.5522 38.603 59.9631 39.5202L53.9818 48.913L51.5009 46.0934C51.2517 45.8103 50.9798 45.5952 50.6853 45.448C50.4021 45.2895 50.0736 45.2102 49.6997 45.2102C49.054 45.2102 48.4876 45.4423 48.0005 45.9066C47.5247 46.3595 47.2868 46.92 47.2868 47.5881C47.2868 47.8938 47.3378 48.1769 47.4398 48.4374C47.5417 48.6978 47.723 48.9809 47.9835 49.2866L51.6878 53.5669C52.005 53.9292 52.3506 54.218 52.7244 54.4331C53.0982 54.6369 53.5174 54.7389 53.9818 54.7389Z" fill="url(#paint3_linear_977_38175)"/>
</g>
<path d="M45.6556 61.465C43.8997 61.465 42.5799 61.0234 41.6963 60.1401C40.8127 59.2569 40.3709 57.9321 40.3709 56.1656V52.7176C40.3709 52.5138 40.2916 52.3326 40.133 52.1741L37.7031 49.7452C36.457 48.4996 35.834 47.2541 35.834 46.0085C35.834 44.7629 36.457 43.5117 37.7031 42.2548L40.133 39.8259C40.2916 39.6787 40.3709 39.4975 40.3709 39.2824V35.8344C40.3709 34.0566 40.8071 32.7318 41.6794 31.8599C42.563 30.988 43.8884 30.552 45.6556 30.552H49.105C49.3202 30.552 49.5015 30.4728 49.6488 30.3142L52.0957 27.9023C53.3418 26.6341 54.5822 26 55.817 26C57.0631 26 58.3149 26.6285 59.5723 27.8854L62.0192 30.3142C62.1665 30.4728 62.3477 30.552 62.563 30.552H66.0124C67.7683 30.552 69.088 30.9936 69.9716 31.8769C70.8552 32.7488 71.297 34.0679 71.297 35.8344V39.2824C71.297 39.4975 71.3763 39.6787 71.5349 39.8259L73.9648 42.2548C75.2109 43.5117 75.834 44.7629 75.834 46.0085C75.834 47.2541 75.2109 48.4996 73.9648 49.7452L71.5349 52.1741C71.3763 52.3326 71.297 52.5138 71.297 52.7176V56.1656C71.297 57.9321 70.8552 59.2569 69.9716 60.1401C69.0993 61.0234 67.7796 61.465 66.0124 61.465H62.563C62.3477 61.465 62.1665 61.5386 62.0192 61.6858L59.5723 64.1147C58.3262 65.3716 57.0801 66 55.834 66C54.5879 66 53.3418 65.3716 52.0957 64.1147L49.6488 61.6858C49.5015 61.5386 49.3202 61.465 49.105 61.465H45.6556ZM53.9818 54.7389C54.4349 54.7389 54.8541 54.6313 55.2393 54.4161C55.6357 54.1897 55.9699 53.8896 56.2418 53.5159L64.0413 41.983C64.2225 41.7226 64.3528 41.4621 64.4321 41.2017C64.5114 40.9299 64.5511 40.6752 64.5511 40.4374C64.5511 39.7919 64.3018 39.2484 63.8034 38.8068C63.3163 38.3652 62.7442 38.1444 62.0872 38.1444C61.2602 38.1444 60.5522 38.603 59.9631 39.5202L53.9818 48.913L51.5009 46.0934C51.2517 45.8103 50.9798 45.5952 50.6853 45.448C50.4021 45.2895 50.0736 45.2102 49.6997 45.2102C49.054 45.2102 48.4876 45.4423 48.0005 45.9066C47.5247 46.3595 47.2868 46.92 47.2868 47.5881C47.2868 47.8938 47.3378 48.1769 47.4398 48.4374C47.5417 48.6978 47.723 48.9809 47.9835 49.2866L51.6878 53.5669C52.005 53.9292 52.3506 54.218 52.7244 54.4331C53.0982 54.6369 53.5174 54.7389 53.9818 54.7389Z" fill="url(#paint4_linear_977_38175)"/>
</g>
<defs>
<filter id="filter0_d_977_38175" x="-0.603518" y="0.3125" width="112.875" height="112.875" filterUnits="userSpaceOnUse" color-interpolation-filters="sRGB">
<feFlood flood-opacity="0" result="BackgroundImageFix"/>
<feColorMatrix in="SourceAlpha" type="matrix" values="0 0 0 0 0 0 0 0 0 0 0 0 0 0 0 0 0 0 127 0" result="hardAlpha"/>
<feOffset dy="10.75"/>
<feGaussianBlur stdDeviation="6.71875"/>
<feColorMatrix type="matrix" values="0 0 0 0 0.00392157 0 0 0 0 0.0196078 0 0 0 0 0.2 0 0 0 0.08 0"/>
<feBlend mode="normal" in2="BackgroundImageFix" result="effect1_dropShadow_977_38175"/>
<feBlend mode="normal" in="SourceGraphic" in2="effect1_dropShadow_977_38175" result="shape"/>
</filter>
<filter id="filter1_i_977_38175" x="24.834" y="15" width="62" height="62" filterUnits="userSpaceOnUse" color-interpolation-filters="sRGB">
<feFlood flood-opacity="0" result="BackgroundImageFix"/>
<feBlend mode="normal" in="SourceGraphic" in2="BackgroundImageFix" result="shape"/>
<feColorMatrix in="SourceAlpha" type="matrix" values="0 0 0 0 0 0 0 0 0 0 0 0 0 0 0 0 0 0 127 0" result="hardAlpha"/>
<feOffset/>
<feGaussianBlur stdDeviation="3.5102"/>
<feComposite in2="hardAlpha" operator="arithmetic" k2="-1" k3="1"/>
<feColorMatrix type="matrix" values="0 0 0 0 0 0 0 0 0 0 0 0 0 0 0 0 0 0 0.6 0"/>
<feBlend mode="normal" in2="shape" result="effect1_innerShadow_977_38175"/>
</filter>
<filter id="filter2_f_977_38175" x="15.834" y="6" width="80" height="80" filterUnits="userSpaceOnUse" color-interpolation-filters="sRGB">
<feFlood flood-opacity="0" result="BackgroundImageFix"/>
<feBlend mode="normal" in="SourceGraphic" in2="BackgroundImageFix" result="shape"/>
<feGaussianBlur stdDeviation="10" result="effect1_foregroundBlur_977_38175"/>
</filter>
<linearGradient id="paint0_linear_977_38175" x1="55.834" y1="2.12244" x2="55.834" y2="88.1224" gradientUnits="userSpaceOnUse">
<stop stop-color="#C7C2C2"/>
<stop offset="1" stop-color="#969292"/>
</linearGradient>
<linearGradient id="paint1_linear_977_38175" x1="55.834" y1="12.2143" x2="55.834" y2="78.0306" gradientUnits="userSpaceOnUse">
<stop stop-opacity="0.06"/>
<stop offset="1" stop-opacity="0"/>
</linearGradient>
<linearGradient id="paint2_linear_977_38175" x1="55.834" y1="13" x2="55.834" y2="79" gradientUnits="userSpaceOnUse">
<stop stop-color="#C7C2C2"/>
<stop offset="1" stop-color="#969292"/>
</linearGradient>
<linearGradient id="paint3_linear_977_38175" x1="55.834" y1="26" x2="55.834" y2="66" gradientUnits="userSpaceOnUse">
<stop stop-color="#C7C2C2"/>
<stop offset="1" stop-color="#969292"/>
</linearGradient>
<linearGradient id="paint4_linear_977_38175" x1="55.834" y1="26" x2="55.834" y2="66" gradientUnits="userSpaceOnUse">
<stop stop-color="#C7C2C2"/>
<stop offset="1" stop-color="#969292"/>
</linearGradient>
</defs>
</svg>
