<svg width="112" height="114" viewBox="0 0 112 114" fill="none" xmlns="http://www.w3.org/2000/svg">
<g filter="url(#filter0_d_982_38208)">
<path fill-rule="evenodd" clip-rule="evenodd" d="M14.0682 45.5612C13.6027 46.7122 13.7727 48.0559 14.5783 49.0661L17.5894 52.842C18.2987 53.7313 18.533 54.9092 18.2181 56.0023L16.8811 60.6431C16.4277 62.2167 17.1228 63.8948 18.5562 64.687L22.7831 67.0231C23.7786 67.5734 24.4459 68.572 24.5732 69.7023L25.114 74.5015C25.2973 76.1289 26.5817 77.4132 28.2091 77.5966L33.0082 78.1373C34.1386 78.2647 35.1372 78.9319 35.6874 79.9275L38.0235 84.1544C38.8157 85.5877 40.4938 86.2828 42.0675 85.8294L46.7082 84.4925C47.8013 84.1776 48.9792 84.4119 49.8686 85.1211L53.6444 88.1322C54.9248 89.1533 56.7412 89.1533 58.0216 88.1322L61.7974 85.1211C62.6868 84.4119 63.8647 84.1776 64.9577 84.4925L69.5985 85.8294C71.1722 86.2828 72.8503 85.5877 73.6425 84.1544L75.9786 79.9275C76.5288 78.9319 77.5274 78.2647 78.6578 78.1373L83.4569 77.5966C85.0843 77.4132 86.3687 76.1289 86.552 74.5015L87.0928 69.7023C87.2201 68.572 87.8874 67.5734 88.8829 67.0231L93.1098 64.687C94.5432 63.8948 95.2383 62.2167 94.7849 60.6431L93.4479 56.0023C93.133 54.9092 93.3673 53.7313 94.0765 52.842L97.0877 49.0661C97.8933 48.0559 98.0633 46.7122 97.5977 45.5612H14.0682Z" fill="#9431C6"/>
<path d="M53.6454 3.86775C54.9258 2.84667 56.7422 2.84667 58.0226 3.86775L61.7984 6.87889C62.6878 7.58812 63.8657 7.82242 64.9587 7.50751L69.5995 6.17055C71.1732 5.71718 72.8513 6.41226 73.6434 7.8456L75.9796 12.0725C76.5298 13.0681 77.5284 13.7353 78.6588 13.8627L83.4579 14.4034C85.0853 14.5868 86.3696 15.8711 86.553 17.4985L87.0938 22.2977C87.2211 23.428 87.8883 24.4266 88.8839 24.9768L93.1108 27.313C94.5442 28.1052 95.2392 29.7832 94.7859 31.3569L93.4489 35.9977C93.134 37.0908 93.3683 38.2686 94.0775 39.158L97.0887 42.9339C98.1097 44.2143 98.1097 46.0306 97.0887 47.311L94.0775 51.0869C93.3683 51.9762 93.134 53.1541 93.4489 54.2472L94.7859 58.888C95.2392 60.4616 94.5442 62.1397 93.1108 62.9319L88.8839 65.268C87.8883 65.8183 87.2211 66.8168 87.0938 67.9472L86.553 72.7464C86.3696 74.3737 85.0853 75.6581 83.4579 75.8415L78.6588 76.3822C77.5284 76.5096 76.5298 77.1768 75.9796 78.1724L73.6434 82.3993C72.8513 83.8326 71.1732 84.5277 69.5995 84.0743L64.9587 82.7374C63.8657 82.4225 62.6878 82.6568 61.7984 83.366L58.0226 86.3771C56.7421 87.3982 54.9258 87.3982 53.6454 86.3771L49.8695 83.366C48.9802 82.6568 47.8023 82.4225 46.7092 82.7374L42.0685 84.0743C40.4948 84.5277 38.8167 83.8326 38.0245 82.3993L35.6884 78.1724C35.1381 77.1768 34.1396 76.5096 33.0092 76.3822L28.2101 75.8415C26.5827 75.6581 25.2983 74.3737 25.115 72.7464L24.5742 67.9472C24.4468 66.8168 23.7796 65.8183 22.784 65.268L18.5572 62.9319C17.1238 62.1397 16.4287 60.4616 16.8821 58.888L18.2191 54.2472C18.534 53.1541 18.2997 51.9762 17.5904 51.0869L14.5793 47.311C13.5582 46.0306 13.5582 44.2143 14.5793 42.9339L17.5904 39.158C18.2997 38.2686 18.534 37.0908 18.2191 35.9977L16.8821 31.3569C16.4287 29.7832 17.1238 28.1052 18.5572 27.313L22.784 24.9768C23.7796 24.4266 24.4469 23.428 24.5742 22.2977L25.115 17.4985C25.2983 15.8711 26.5827 14.5868 28.2101 14.4034L33.0092 13.8627C34.1396 13.7353 35.1381 13.0681 35.6884 12.0725L38.0245 7.8456C38.8167 6.41226 40.4948 5.71718 42.0685 6.17055L46.7092 7.50751C47.8023 7.82242 48.9802 7.58812 49.8695 6.87889L53.6454 3.86775Z" fill="url(#paint0_linear_982_38208)"/>
<ellipse cx="55.834" cy="45.1224" rx="32.9082" ry="32.9082" transform="rotate(-180 55.834 45.1224)" fill="url(#paint1_linear_982_38208)"/>
<circle cx="55.8346" cy="45.1225" r="32.4694" fill="url(#paint2_linear_982_38208)"/>
<g filter="url(#filter1_i_982_38208)">
<path d="M55.6147 75.398C72.2143 75.398 85.6708 61.9414 85.6708 45.3418C85.6708 28.7423 72.2143 15.2857 55.6147 15.2857C39.0152 15.2857 25.5586 28.7423 25.5586 45.3418C25.5586 61.9414 39.0152 75.398 55.6147 75.398Z" fill="#181A32"/>
</g>
<g filter="url(#filter2_f_982_38208)">
<path d="M70.5901 33.3838C70.5877 33.382 70.5856 33.3799 70.5837 33.3775C70.5224 33.302 70.4465 33.2395 70.3606 33.1939C70.2733 33.1475 70.1775 33.1195 70.079 33.1115C69.9805 33.1035 69.8814 33.1157 69.7878 33.1474C69.6942 33.1791 69.6081 33.2296 69.5347 33.2958C68.9205 33.8557 68.3506 34.4622 67.8299 35.11C67.6 35.4062 67.2667 35.6046 66.8968 35.6654C66.5269 35.7263 66.1477 35.6452 65.835 35.4383C65.6706 35.3246 65.5315 35.1781 65.4264 35.008C65.3213 34.838 65.2525 34.648 65.2242 34.4501C65.196 34.2521 65.2089 34.0505 65.2622 33.8578C65.3155 33.6651 65.408 33.4855 65.534 33.3303C66.1084 32.6119 66.7345 31.9364 67.4074 31.3093C67.4849 31.2383 67.5461 31.1513 67.5868 31.0543C67.6274 30.9574 67.6465 30.8527 67.6427 30.7476C67.6389 30.6425 67.6123 30.5395 67.5648 30.4458C67.5173 30.352 67.4499 30.2696 67.3675 30.2044C64.0672 27.6444 60.0095 26.2551 55.8332 26.2551C51.657 26.2551 47.5993 27.6444 44.299 30.2044C44.2165 30.2696 44.1492 30.352 44.1017 30.4458C44.0542 30.5395 44.0276 30.6425 44.0238 30.7476C44.02 30.8527 44.0391 30.9574 44.0797 31.0543C44.1203 31.1513 44.1816 31.2383 44.2591 31.3093C44.9203 31.9255 45.5367 32.5881 46.1035 33.2922C46.3323 33.5705 46.4521 33.9227 46.4404 34.2829C46.4287 34.6431 46.2864 34.9867 46.04 35.2497C45.8966 35.3978 45.7232 35.5136 45.5315 35.5894C45.3397 35.6652 45.134 35.6993 44.9281 35.6893C44.7222 35.6793 44.5208 35.6256 44.3372 35.5316C44.1537 35.4377 43.9923 35.3057 43.8638 35.1444C43.3338 34.4826 42.7523 33.8638 42.1246 33.294C42.0511 33.2282 41.965 33.1781 41.8715 33.1467C41.778 33.1153 41.6791 33.1033 41.5808 33.1115C41.4825 33.1196 41.387 33.1477 41.2999 33.1941C41.2128 33.2404 41.1362 33.3041 41.0745 33.3811C38.4151 36.7163 36.9668 40.8562 36.9668 45.1224C36.9668 49.3887 38.4151 53.5286 41.0745 56.8638C41.1363 56.941 41.2132 57.0047 41.3005 57.051C41.3877 57.0974 41.4836 57.1254 41.5821 57.1334C41.6806 57.1414 41.7796 57.1292 41.8732 57.0975C41.9668 57.0658 42.053 57.0153 42.1264 56.9491C42.7405 56.3892 43.3104 55.7827 43.8311 55.1349C44.0611 54.8387 44.3943 54.6403 44.7642 54.5794C45.1341 54.5186 45.5134 54.5997 45.826 54.8065C45.9908 54.9199 46.1304 55.0661 46.236 55.2359C46.3416 55.4058 46.411 55.5956 46.4398 55.7936C46.4685 55.9915 46.4561 56.1933 46.4032 56.3862C46.3504 56.5791 46.2582 56.759 46.1325 56.9146C45.5581 57.633 44.9319 58.3085 44.2591 58.9356C44.1816 59.0066 44.1203 59.0936 44.0797 59.1906C44.0391 59.2875 44.02 59.3922 44.0238 59.4973C44.0276 59.6023 44.0542 59.7053 44.1017 59.7991C44.1492 59.8929 44.2165 59.9753 44.299 60.0405C47.5993 62.6004 51.657 63.9898 55.8332 63.9898C60.0095 63.9898 64.0672 62.6004 67.3675 60.0405C67.4499 59.9753 67.5173 59.8929 67.5648 59.7991C67.6123 59.7053 67.6389 59.6023 67.6427 59.4973C67.6465 59.3922 67.6274 59.2875 67.5868 59.1906C67.5461 59.0936 67.4849 59.0066 67.4074 58.9356C66.7345 58.3085 66.1084 57.633 65.534 56.9146C65.4093 56.759 65.318 56.5794 65.2657 56.387C65.2135 56.1946 65.2015 55.9934 65.2304 55.7961C65.2594 55.5989 65.3286 55.4097 65.4339 55.2403C65.5391 55.071 65.6782 54.9252 65.8423 54.812C66.1549 54.6051 66.5342 54.524 66.9041 54.5849C67.274 54.6458 67.6072 54.8442 67.8372 55.1404C68.3579 55.7881 68.9278 56.3946 69.5419 56.9545C69.6153 57.0207 69.7014 57.0712 69.795 57.1029C69.8886 57.1346 69.9877 57.1468 70.0862 57.1388C70.1847 57.1309 70.2805 57.1028 70.3678 57.0565C70.4551 57.0101 70.532 56.9464 70.5938 56.8693C73.2532 53.534 74.7015 49.3942 74.7015 45.1279C74.7015 40.8631 73.2542 36.7247 70.5966 33.3901C70.5947 33.3877 70.5925 33.3856 70.5901 33.3838ZM47.4383 37.9201C47.8007 37.8266 48.185 37.8735 48.5143 38.0515C48.8436 38.2294 49.0934 38.5253 49.2138 38.8798C49.5594 39.8706 49.8226 40.8882 50.0008 41.9222C50.0451 42.1336 50.0416 42.3523 49.9907 42.5621C49.9398 42.772 49.8426 42.9679 49.7064 43.1355C49.5702 43.3031 49.3983 43.4381 49.2032 43.5308C49.0082 43.6234 48.7949 43.6714 48.579 43.6711C48.2138 43.6723 47.8616 43.5357 47.5926 43.2885C47.3237 43.0413 47.1578 42.7018 47.1282 42.3377C47.0593 41.5322 46.9269 40.7212 46.5478 40.0083C46.4443 39.8163 46.3853 39.6034 46.3753 39.3855C46.3654 39.1676 46.4046 38.9503 46.4902 38.7496C46.5757 38.549 46.7054 38.3702 46.8696 38.2266C47.0337 38.083 47.2281 37.9782 47.4383 37.9201ZM50.0008 48.3136C49.8217 49.3674 49.5529 50.4041 49.1974 51.4122C49.1285 51.6069 49.0189 51.7847 48.8758 51.9336C48.7327 52.0825 48.5595 52.1992 48.3678 52.2757C48.176 52.3523 47.9701 52.3871 47.7639 52.3777C47.5576 52.3683 47.3557 52.315 47.1717 52.2213C46.8545 52.052 46.6096 51.7734 46.4822 51.4371C46.3548 51.1008 46.3536 50.7297 46.4789 50.3926C46.7751 49.5441 46.9989 48.672 47.1481 47.7857C47.182 47.5826 47.2586 47.3891 47.3729 47.2179C47.4873 47.0467 47.6367 46.9019 47.8114 46.7929C47.986 46.684 48.1817 46.6134 48.3857 46.586C48.5897 46.5585 48.7971 46.5748 48.9943 46.6337C49.3376 46.7433 49.6292 46.9744 49.8145 47.2836C49.9997 47.5928 50.066 47.959 50.0008 48.3136ZM64.4948 52.2213C64.3108 52.315 64.1089 52.3683 63.9026 52.3777C63.6964 52.3871 63.4905 52.3523 63.2987 52.2757C63.107 52.1992 62.9338 52.0825 62.7907 51.9336C62.6476 51.7847 62.5379 51.6069 62.469 51.4122C62.1136 50.4041 61.8448 49.3674 61.6656 48.3136C61.6009 47.9591 61.6673 47.5931 61.8525 47.2839C62.0377 46.9748 62.3291 46.7437 62.6722 46.6337C62.8694 46.5748 63.0768 46.5585 63.2808 46.586C63.4847 46.6134 63.6805 46.684 63.8551 46.7929C64.0297 46.9019 64.1792 47.0467 64.2935 47.2179C64.4079 47.3891 64.4845 47.5826 64.5184 47.7857C64.6675 48.672 64.8914 49.5441 65.1876 50.3926C65.3129 50.7297 65.3117 51.1008 65.1843 51.4371C65.0569 51.7734 64.8119 52.052 64.4948 52.2213ZM65.1132 40.0083C64.7342 40.7212 64.6018 41.5322 64.5329 42.3377C64.5144 42.5509 64.4489 42.7575 64.3413 42.9425C64.2336 43.1275 64.0863 43.2864 63.91 43.4077C63.7338 43.5291 63.5328 43.61 63.3216 43.6445C63.1104 43.6791 62.8942 43.6665 62.6885 43.6076C62.3419 43.5019 62.0462 43.2726 61.8574 42.9633C61.6685 42.654 61.5997 42.2862 61.6638 41.9295C61.8411 40.8933 62.105 39.8737 62.4527 38.8817C62.5723 38.5266 62.822 38.23 63.1514 38.0516C63.4808 37.8732 63.8656 37.8262 64.2282 37.9201C64.4379 37.9789 64.6317 38.0841 64.7952 38.2279C64.9588 38.3718 65.0878 38.5507 65.1728 38.7512C65.2578 38.9518 65.2966 39.1689 65.2863 39.3866C65.276 39.6042 65.2168 39.8166 65.1132 40.0083Z" fill="url(#paint3_linear_982_38208)" fill-opacity="0.32"/>
</g>
<g filter="url(#filter3_d_982_38208)">
<path d="M70.5901 33.3838C70.5877 33.382 70.5856 33.3799 70.5837 33.3775C70.5224 33.302 70.4465 33.2395 70.3606 33.1939C70.2733 33.1475 70.1775 33.1195 70.079 33.1115C69.9805 33.1035 69.8814 33.1157 69.7878 33.1474C69.6942 33.1791 69.6081 33.2296 69.5347 33.2958C68.9205 33.8557 68.3506 34.4622 67.8299 35.11C67.6 35.4062 67.2667 35.6046 66.8968 35.6654C66.5269 35.7263 66.1477 35.6452 65.835 35.4383C65.6706 35.3246 65.5315 35.1781 65.4264 35.008C65.3213 34.838 65.2525 34.648 65.2242 34.4501C65.196 34.2521 65.2089 34.0505 65.2622 33.8578C65.3155 33.6651 65.408 33.4855 65.534 33.3303C66.1084 32.6119 66.7345 31.9364 67.4074 31.3093C67.4849 31.2383 67.5461 31.1513 67.5868 31.0543C67.6274 30.9574 67.6465 30.8527 67.6427 30.7476C67.6389 30.6425 67.6123 30.5395 67.5648 30.4458C67.5173 30.352 67.4499 30.2696 67.3675 30.2044C64.0672 27.6444 60.0095 26.2551 55.8332 26.2551C51.657 26.2551 47.5993 27.6444 44.299 30.2044C44.2165 30.2696 44.1492 30.352 44.1017 30.4458C44.0542 30.5395 44.0276 30.6425 44.0238 30.7476C44.02 30.8527 44.0391 30.9574 44.0797 31.0543C44.1203 31.1513 44.1816 31.2383 44.2591 31.3093C44.9203 31.9255 45.5367 32.5881 46.1035 33.2922C46.3323 33.5705 46.4521 33.9227 46.4404 34.2829C46.4287 34.6431 46.2864 34.9867 46.04 35.2497C45.8966 35.3978 45.7232 35.5136 45.5315 35.5894C45.3397 35.6652 45.134 35.6993 44.9281 35.6893C44.7222 35.6793 44.5208 35.6256 44.3372 35.5316C44.1537 35.4377 43.9923 35.3057 43.8638 35.1444C43.3338 34.4826 42.7523 33.8638 42.1246 33.294C42.0511 33.2282 41.965 33.1781 41.8715 33.1467C41.778 33.1153 41.6791 33.1033 41.5808 33.1115C41.4825 33.1196 41.387 33.1477 41.2999 33.1941C41.2128 33.2404 41.1362 33.3041 41.0745 33.3811C38.4151 36.7163 36.9668 40.8562 36.9668 45.1224C36.9668 49.3887 38.4151 53.5286 41.0745 56.8638C41.1363 56.941 41.2132 57.0047 41.3005 57.051C41.3877 57.0974 41.4836 57.1254 41.5821 57.1334C41.6806 57.1414 41.7796 57.1292 41.8732 57.0975C41.9668 57.0658 42.053 57.0153 42.1264 56.9491C42.7405 56.3892 43.3104 55.7827 43.8311 55.1349C44.0611 54.8387 44.3943 54.6403 44.7642 54.5794C45.1341 54.5186 45.5134 54.5997 45.826 54.8065C45.9908 54.9199 46.1304 55.0661 46.236 55.2359C46.3416 55.4058 46.411 55.5956 46.4398 55.7936C46.4685 55.9915 46.4561 56.1933 46.4032 56.3862C46.3504 56.5791 46.2582 56.759 46.1325 56.9146C45.5581 57.633 44.9319 58.3085 44.2591 58.9356C44.1816 59.0066 44.1203 59.0936 44.0797 59.1906C44.0391 59.2875 44.02 59.3922 44.0238 59.4973C44.0276 59.6023 44.0542 59.7053 44.1017 59.7991C44.1492 59.8929 44.2165 59.9753 44.299 60.0405C47.5993 62.6004 51.657 63.9898 55.8332 63.9898C60.0095 63.9898 64.0672 62.6004 67.3675 60.0405C67.4499 59.9753 67.5173 59.8929 67.5648 59.7991C67.6123 59.7053 67.6389 59.6023 67.6427 59.4973C67.6465 59.3922 67.6274 59.2875 67.5868 59.1906C67.5461 59.0936 67.4849 59.0066 67.4074 58.9356C66.7345 58.3085 66.1084 57.633 65.534 56.9146C65.4093 56.759 65.318 56.5794 65.2657 56.387C65.2135 56.1946 65.2015 55.9934 65.2304 55.7961C65.2594 55.5989 65.3286 55.4097 65.4339 55.2403C65.5391 55.071 65.6782 54.9252 65.8423 54.812C66.1549 54.6051 66.5342 54.524 66.9041 54.5849C67.274 54.6458 67.6072 54.8442 67.8372 55.1404C68.3579 55.7881 68.9278 56.3946 69.5419 56.9545C69.6153 57.0207 69.7014 57.0712 69.795 57.1029C69.8886 57.1346 69.9877 57.1468 70.0862 57.1388C70.1847 57.1309 70.2805 57.1028 70.3678 57.0565C70.4551 57.0101 70.532 56.9464 70.5938 56.8693C73.2532 53.534 74.7015 49.3942 74.7015 45.1279C74.7015 40.8631 73.2542 36.7247 70.5966 33.3901C70.5947 33.3877 70.5925 33.3856 70.5901 33.3838ZM47.4383 37.9201C47.8007 37.8266 48.185 37.8735 48.5143 38.0515C48.8436 38.2294 49.0934 38.5253 49.2138 38.8798C49.5594 39.8706 49.8226 40.8882 50.0008 41.9222C50.0451 42.1336 50.0416 42.3523 49.9907 42.5621C49.9398 42.772 49.8426 42.9679 49.7064 43.1355C49.5702 43.3031 49.3983 43.4381 49.2032 43.5308C49.0082 43.6234 48.7949 43.6714 48.579 43.6711C48.2138 43.6723 47.8616 43.5357 47.5926 43.2885C47.3237 43.0413 47.1578 42.7018 47.1282 42.3377C47.0593 41.5322 46.9269 40.7212 46.5478 40.0083C46.4443 39.8163 46.3853 39.6034 46.3753 39.3855C46.3654 39.1676 46.4046 38.9503 46.4902 38.7496C46.5757 38.549 46.7054 38.3702 46.8696 38.2266C47.0337 38.083 47.2281 37.9782 47.4383 37.9201ZM50.0008 48.3136C49.8217 49.3674 49.5529 50.4041 49.1974 51.4122C49.1285 51.6069 49.0189 51.7847 48.8758 51.9336C48.7327 52.0825 48.5595 52.1992 48.3678 52.2757C48.176 52.3523 47.9701 52.3871 47.7639 52.3777C47.5576 52.3683 47.3557 52.315 47.1717 52.2213C46.8545 52.052 46.6096 51.7734 46.4822 51.4371C46.3548 51.1008 46.3536 50.7297 46.4789 50.3926C46.7751 49.5441 46.9989 48.672 47.1481 47.7857C47.182 47.5826 47.2586 47.3891 47.3729 47.2179C47.4873 47.0467 47.6367 46.9019 47.8114 46.7929C47.986 46.684 48.1817 46.6134 48.3857 46.586C48.5897 46.5585 48.7971 46.5748 48.9943 46.6337C49.3376 46.7433 49.6292 46.9744 49.8145 47.2836C49.9997 47.5928 50.066 47.959 50.0008 48.3136ZM64.4948 52.2213C64.3108 52.315 64.1089 52.3683 63.9026 52.3777C63.6964 52.3871 63.4905 52.3523 63.2987 52.2757C63.107 52.1992 62.9338 52.0825 62.7907 51.9336C62.6476 51.7847 62.5379 51.6069 62.469 51.4122C62.1136 50.4041 61.8448 49.3674 61.6656 48.3136C61.6009 47.9591 61.6673 47.5931 61.8525 47.2839C62.0377 46.9748 62.3291 46.7437 62.6722 46.6337C62.8694 46.5748 63.0768 46.5585 63.2808 46.586C63.4847 46.6134 63.6805 46.684 63.8551 46.7929C64.0297 46.9019 64.1792 47.0467 64.2935 47.2179C64.4079 47.3891 64.4845 47.5826 64.5184 47.7857C64.6675 48.672 64.8914 49.5441 65.1876 50.3926C65.3129 50.7297 65.3117 51.1008 65.1843 51.4371C65.0569 51.7734 64.8119 52.052 64.4948 52.2213ZM65.1132 40.0083C64.7342 40.7212 64.6018 41.5322 64.5329 42.3377C64.5144 42.5509 64.4489 42.7575 64.3413 42.9425C64.2336 43.1275 64.0863 43.2864 63.91 43.4077C63.7338 43.5291 63.5328 43.61 63.3216 43.6445C63.1104 43.6791 62.8942 43.6665 62.6885 43.6076C62.3419 43.5019 62.0462 43.2726 61.8574 42.9633C61.6685 42.654 61.5997 42.2862 61.6638 41.9295C61.8411 40.8933 62.105 39.8737 62.4527 38.8817C62.5723 38.5266 62.822 38.23 63.1514 38.0516C63.4808 37.8732 63.8656 37.8262 64.2282 37.9201C64.4379 37.9789 64.6317 38.0841 64.7952 38.2279C64.9588 38.3718 65.0878 38.5507 65.1728 38.7512C65.2578 38.9518 65.2966 39.1689 65.2863 39.3866C65.276 39.6042 65.2168 39.8166 65.1132 40.0083Z" fill="url(#paint4_linear_982_38208)"/>
</g>
</g>
<defs>
<filter id="filter0_d_982_38208" x="-0.603518" y="0.3125" width="112.875" height="112.875" filterUnits="userSpaceOnUse" color-interpolation-filters="sRGB">
<feFlood flood-opacity="0" result="BackgroundImageFix"/>
<feColorMatrix in="SourceAlpha" type="matrix" values="0 0 0 0 0 0 0 0 0 0 0 0 0 0 0 0 0 0 127 0" result="hardAlpha"/>
<feOffset dy="10.75"/>
<feGaussianBlur stdDeviation="6.71875"/>
<feColorMatrix type="matrix" values="0 0 0 0 0.00392157 0 0 0 0 0.0196078 0 0 0 0 0.2 0 0 0 0.08 0"/>
<feBlend mode="normal" in2="BackgroundImageFix" result="effect1_dropShadow_982_38208"/>
<feBlend mode="normal" in="SourceGraphic" in2="effect1_dropShadow_982_38208" result="shape"/>
</filter>
<filter id="filter1_i_982_38208" x="25.5586" y="15.2857" width="60.1113" height="60.1122" filterUnits="userSpaceOnUse" color-interpolation-filters="sRGB">
<feFlood flood-opacity="0" result="BackgroundImageFix"/>
<feBlend mode="normal" in="SourceGraphic" in2="BackgroundImageFix" result="shape"/>
<feColorMatrix in="SourceAlpha" type="matrix" values="0 0 0 0 0 0 0 0 0 0 0 0 0 0 0 0 0 0 127 0" result="hardAlpha"/>
<feOffset/>
<feGaussianBlur stdDeviation="3.5102"/>
<feComposite in2="hardAlpha" operator="arithmetic" k2="-1" k3="1"/>
<feColorMatrix type="matrix" values="0 0 0 0 0 0 0 0 0 0 0 0 0 0 0 0 0 0 0.6 0"/>
<feBlend mode="normal" in2="shape" result="effect1_innerShadow_982_38208"/>
</filter>
<filter id="filter2_f_982_38208" x="15.9056" y="5.19387" width="79.8568" height="79.8572" filterUnits="userSpaceOnUse" color-interpolation-filters="sRGB">
<feFlood flood-opacity="0" result="BackgroundImageFix"/>
<feBlend mode="normal" in="SourceGraphic" in2="BackgroundImageFix" result="shape"/>
<feGaussianBlur stdDeviation="10.5306" result="effect1_foregroundBlur_982_38208"/>
</filter>
<filter id="filter3_d_982_38208" x="26.4362" y="19.2347" width="58.7956" height="58.7959" filterUnits="userSpaceOnUse" color-interpolation-filters="sRGB">
<feFlood flood-opacity="0" result="BackgroundImageFix"/>
<feColorMatrix in="SourceAlpha" type="matrix" values="0 0 0 0 0 0 0 0 0 0 0 0 0 0 0 0 0 0 127 0" result="hardAlpha"/>
<feOffset dy="3.5102"/>
<feGaussianBlur stdDeviation="5.26531"/>
<feComposite in2="hardAlpha" operator="out"/>
<feColorMatrix type="matrix" values="0 0 0 0 0 0 0 0 0 0 0 0 0 0 0 0 0 0 0.25 0"/>
<feBlend mode="normal" in2="BackgroundImageFix" result="effect1_dropShadow_982_38208"/>
<feBlend mode="normal" in="SourceGraphic" in2="effect1_dropShadow_982_38208" result="shape"/>
</filter>
<linearGradient id="paint0_linear_982_38208" x1="55.834" y1="2.12244" x2="55.834" y2="88.1224" gradientUnits="userSpaceOnUse">
<stop stop-color="#FACE6D"/>
<stop offset="0.228865" stop-color="#F3805F"/>
<stop offset="0.51526" stop-color="#DD6FB3"/>
<stop offset="0.750843" stop-color="#DB90E0"/>
<stop offset="1" stop-color="#B440E0"/>
</linearGradient>
<linearGradient id="paint1_linear_982_38208" x1="55.834" y1="12.2143" x2="55.834" y2="78.0306" gradientUnits="userSpaceOnUse">
<stop stop-opacity="0.06"/>
<stop offset="1" stop-opacity="0"/>
</linearGradient>
<linearGradient id="paint2_linear_982_38208" x1="55.8346" y1="12.6531" x2="55.8346" y2="77.5919" gradientUnits="userSpaceOnUse">
<stop stop-color="#AB38E3"/>
<stop offset="0.481707" stop-color="#DD3A6A"/>
<stop offset="1" stop-color="#FBC844"/>
</linearGradient>
<linearGradient id="paint3_linear_982_38208" x1="55.8341" y1="26.2551" x2="55.8341" y2="63.9898" gradientUnits="userSpaceOnUse">
<stop stop-color="#FACE6D"/>
<stop offset="0.228865" stop-color="#F3805F"/>
<stop offset="0.51526" stop-color="#DF6EAE"/>
<stop offset="0.750843" stop-color="#DA8ADB"/>
<stop offset="1" stop-color="#B94FE7"/>
</linearGradient>
<linearGradient id="paint4_linear_982_38208" x1="55.8341" y1="26.2551" x2="55.8341" y2="63.9898" gradientUnits="userSpaceOnUse">
<stop stop-color="#FACE6D"/>
<stop offset="0.228865" stop-color="#F3805F"/>
<stop offset="0.51526" stop-color="#DF6EAE"/>
<stop offset="0.750843" stop-color="#DA8ADB"/>
<stop offset="1" stop-color="#B94FE7"/>
</linearGradient>
</defs>
</svg>
