<svg width="112" height="114" viewBox="0 0 112 114" fill="none" xmlns="http://www.w3.org/2000/svg">
<g filter="url(#filter0_d_982_38198)">
<path fill-rule="evenodd" clip-rule="evenodd" d="M14.4022 45.5612C13.9367 46.7122 14.1067 48.0559 14.9123 49.0661L17.9234 52.842C18.6327 53.7313 18.867 54.9092 18.5521 56.0023L17.2151 60.6431C16.7617 62.2167 17.4568 63.8948 18.8901 64.687L23.117 67.0231C24.1126 67.5734 24.7798 68.572 24.9072 69.7023L25.448 74.5015C25.6313 76.1289 26.9157 77.4132 28.5431 77.5966L33.3422 78.1373C34.4726 78.2647 35.4711 78.9319 36.0214 79.9275L38.3575 84.1544C39.1497 85.5877 40.8278 86.2828 42.4015 85.8294L47.0422 84.4925C48.1353 84.1776 49.3132 84.4119 50.2025 85.1211L53.9784 88.1322C55.2588 89.1533 57.0751 89.1533 58.3555 88.1322L62.1314 85.1211C63.0208 84.4119 64.1987 84.1776 65.2917 84.4925L69.9325 85.8294C71.5062 86.2828 73.1843 85.5877 73.9764 84.1544L76.3126 79.9275C76.8628 78.9319 77.8614 78.2647 78.9918 78.1373L83.7909 77.5966C85.4183 77.4132 86.7026 76.1289 86.886 74.5015L87.4268 69.7023C87.5541 68.572 88.2213 67.5734 89.2169 67.0231L93.4438 64.687C94.8772 63.8948 95.5722 62.2167 95.1189 60.6431L93.7819 56.0023C93.467 54.9092 93.7013 53.7313 94.4105 52.842L97.4217 49.0661C98.2272 48.0559 98.3973 46.7122 97.9317 45.5612H14.4022Z" fill="#4A1C62"/>
<path d="M53.9794 3.86775C55.2598 2.84667 57.0761 2.84667 58.3565 3.86775L62.1324 6.87889C63.0218 7.58812 64.1996 7.82242 65.2927 7.50751L69.9335 6.17055C71.5072 5.71718 73.1852 6.41226 73.9774 7.8456L76.3136 12.0725C76.8638 13.0681 77.8624 13.7353 78.9927 13.8627L83.7919 14.4034C85.4193 14.5868 86.7036 15.8711 86.887 17.4985L87.4277 22.2977C87.5551 23.428 88.2223 24.4266 89.2179 24.9768L93.4448 27.313C94.8781 28.1052 95.5732 29.7832 95.1199 31.3569L93.7829 35.9977C93.468 37.0908 93.7023 38.2686 94.4115 39.158L97.4227 42.9339C98.4437 44.2143 98.4437 46.0306 97.4227 47.311L94.4115 51.0869C93.7023 51.9762 93.468 53.1541 93.7829 54.2472L95.1199 58.888C95.5732 60.4616 94.8781 62.1397 93.4448 62.9319L89.2179 65.268C88.2223 65.8183 87.5551 66.8168 87.4277 67.9472L86.887 72.7464C86.7036 74.3737 85.4193 75.6581 83.7919 75.8415L78.9927 76.3822C77.8624 76.5096 76.8638 77.1768 76.3136 78.1724L73.9774 82.3993C73.1852 83.8326 71.5072 84.5277 69.9335 84.0743L65.2927 82.7374C64.1996 82.4225 63.0218 82.6568 62.1324 83.366L58.3565 86.3771C57.0761 87.3982 55.2598 87.3982 53.9794 86.3771L50.2035 83.366C49.3142 82.6568 48.1363 82.4225 47.0432 82.7374L42.4025 84.0743C40.8288 84.5277 39.1507 83.8326 38.3585 82.3993L36.0224 78.1724C35.4721 77.1768 34.4736 76.5096 33.3432 76.3822L28.5441 75.8415C26.9167 75.6581 25.6323 74.3737 25.4489 72.7464L24.9082 67.9472C24.7808 66.8168 24.1136 65.8183 23.118 65.268L18.8911 62.9319C17.4578 62.1397 16.7627 60.4616 17.2161 58.888L18.553 54.2472C18.8679 53.1541 18.6337 51.9762 17.9244 51.0869L14.9133 47.311C13.8922 46.0306 13.8922 44.2143 14.9133 42.9339L17.9244 39.158C18.6337 38.2686 18.8679 37.0908 18.553 35.9977L17.2161 31.3569C16.7627 29.7832 17.4578 28.1052 18.8911 27.313L23.118 24.9768C24.1136 24.4266 24.7808 23.428 24.9082 22.2977L25.4489 17.4985C25.6323 15.8711 26.9167 14.5868 28.5441 14.4034L33.3432 13.8627C34.4736 13.7353 35.4721 13.0681 36.0224 12.0725L38.3585 7.8456C39.1507 6.41226 40.8288 5.71718 42.4025 6.17055L47.0432 7.50751C48.1363 7.82242 49.3142 7.58812 50.2035 6.87889L53.9794 3.86775Z" fill="url(#paint0_linear_982_38198)"/>
<ellipse cx="56.168" cy="45.1224" rx="32.9082" ry="32.9082" transform="rotate(-180 56.168 45.1224)" fill="url(#paint1_linear_982_38198)"/>
<circle cx="56.1673" cy="45.1224" r="32.4694" transform="rotate(-180 56.1673 45.1224)" fill="url(#paint2_linear_982_38198)"/>
<g filter="url(#filter1_i_982_38198)">
<path d="M55.9487 75.398C72.5482 75.398 86.0048 61.9414 86.0048 45.3418C86.0048 28.7423 72.5482 15.2857 55.9487 15.2857C39.3492 15.2857 25.8926 28.7423 25.8926 45.3418C25.8926 61.9414 39.3492 75.398 55.9487 75.398Z" fill="#181A32"/>
</g>
<g opacity="0.32" filter="url(#filter2_f_982_38198)">
<path d="M70.9241 33.3838C70.9217 33.382 70.9196 33.3799 70.9177 33.3775C70.8564 33.302 70.7805 33.2395 70.6946 33.1939C70.6073 33.1475 70.5115 33.1195 70.413 33.1115C70.3145 33.1035 70.2154 33.1157 70.1218 33.1474C70.0282 33.1791 69.942 33.2296 69.8686 33.2958C69.2545 33.8557 68.6846 34.4622 68.1639 35.11C67.934 35.4062 67.6007 35.6046 67.2308 35.6654C66.8609 35.7263 66.4817 35.6452 66.169 35.4383C66.0046 35.3246 65.8655 35.1781 65.7604 35.008C65.6553 34.838 65.5865 34.648 65.5582 34.4501C65.53 34.2521 65.5429 34.0505 65.5962 33.8578C65.6495 33.6651 65.742 33.4855 65.8679 33.3303C66.4424 32.6119 67.0685 31.9364 67.7413 31.3093C67.8189 31.2383 67.8801 31.1513 67.9207 31.0543C67.9614 30.9574 67.9805 30.8527 67.9767 30.7476C67.9729 30.6425 67.9463 30.5395 67.8988 30.4458C67.8512 30.352 67.7839 30.2696 67.7014 30.2044C64.4011 27.6444 60.3435 26.2551 56.1672 26.2551C51.991 26.2551 47.9333 27.6444 44.633 30.2044C44.5505 30.2696 44.4832 30.352 44.4357 30.4458C44.3882 30.5395 44.3616 30.6425 44.3578 30.7476C44.354 30.8527 44.3731 30.9574 44.4137 31.0543C44.4543 31.1513 44.5155 31.2383 44.5931 31.3093C45.2543 31.9255 45.8707 32.5881 46.4375 33.2922C46.6663 33.5705 46.7861 33.9227 46.7744 34.2829C46.7627 34.6431 46.6204 34.9867 46.374 35.2497C46.2305 35.3978 46.0572 35.5136 45.8654 35.5894C45.6737 35.6652 45.468 35.6993 45.2621 35.6893C45.0562 35.6793 44.8547 35.6256 44.6712 35.5316C44.4877 35.4377 44.3263 35.3057 44.1978 35.1444C43.6678 34.4826 43.0863 33.8638 42.4586 33.294C42.3851 33.2282 42.299 33.1781 42.2055 33.1467C42.112 33.1153 42.0131 33.1033 41.9148 33.1115C41.8165 33.1196 41.7209 33.1477 41.6339 33.1941C41.5468 33.2404 41.4701 33.3041 41.4085 33.3811C38.7491 36.7163 37.3008 40.8562 37.3008 45.1224C37.3008 49.3887 38.7491 53.5286 41.4085 56.8638C41.4703 56.941 41.5472 57.0047 41.6345 57.051C41.7217 57.0974 41.8176 57.1254 41.916 57.1334C42.0145 57.1414 42.1136 57.1292 42.2072 57.0975C42.3008 57.0658 42.387 57.0153 42.4604 56.9491C43.0745 56.3892 43.6444 55.7827 44.1651 55.1349C44.395 54.8387 44.7283 54.6403 45.0982 54.5794C45.4681 54.5186 45.8473 54.5997 46.16 54.8065C46.3248 54.9199 46.4644 55.0661 46.57 55.2359C46.6756 55.4058 46.745 55.5956 46.7738 55.7936C46.8025 55.9915 46.7901 56.1933 46.7372 56.3862C46.6844 56.5791 46.5922 56.759 46.4665 56.9146C45.892 57.633 45.2659 58.3085 44.5931 58.9356C44.5155 59.0066 44.4543 59.0936 44.4137 59.1906C44.3731 59.2875 44.354 59.3922 44.3578 59.4973C44.3616 59.6023 44.3882 59.7053 44.4357 59.7991C44.4832 59.8929 44.5505 59.9753 44.633 60.0405C47.9333 62.6004 51.991 63.9898 56.1672 63.9898C60.3435 63.9898 64.4011 62.6004 67.7014 60.0405C67.7839 59.9753 67.8512 59.8929 67.8988 59.7991C67.9463 59.7053 67.9729 59.6023 67.9767 59.4973C67.9805 59.3922 67.9614 59.2875 67.9207 59.1906C67.8801 59.0936 67.8189 59.0066 67.7413 58.9356C67.0685 58.3085 66.4424 57.633 65.8679 56.9146C65.7433 56.759 65.6519 56.5794 65.5997 56.387C65.5475 56.1946 65.5355 55.9934 65.5644 55.7961C65.5933 55.5989 65.6626 55.4097 65.7679 55.2403C65.8731 55.071 66.0121 54.9252 66.1762 54.812C66.4889 54.6051 66.8682 54.524 67.2381 54.5849C67.608 54.6458 67.9412 54.8442 68.1712 55.1404C68.6918 55.7881 69.2618 56.3946 69.8759 56.9545C69.9493 57.0207 70.0354 57.0712 70.129 57.1029C70.2226 57.1346 70.3217 57.1468 70.4202 57.1388C70.5187 57.1309 70.6145 57.1028 70.7018 57.0565C70.7891 57.0101 70.866 56.9464 70.9278 56.8693C73.5872 53.534 75.0355 49.3942 75.0355 45.1279C75.0355 40.8631 73.5882 36.7247 70.9306 33.3901C70.9287 33.3877 70.9265 33.3856 70.9241 33.3838ZM47.7723 37.9201C48.1347 37.8266 48.519 37.8735 48.8483 38.0515C49.1775 38.2294 49.4274 38.5253 49.5477 38.8798C49.8933 39.8706 50.1566 40.8882 50.3348 41.9222C50.3791 42.1336 50.3756 42.3523 50.3247 42.5621C50.2737 42.772 50.1766 42.9679 50.0404 43.1355C49.9042 43.3031 49.7322 43.4381 49.5372 43.5308C49.3422 43.6234 49.1289 43.6714 48.913 43.6711C48.5478 43.6723 48.1956 43.5357 47.9266 43.2885C47.6577 43.0413 47.4918 42.7018 47.4622 42.3377C47.3932 41.5322 47.2608 40.7212 46.8818 40.0083C46.7783 39.8163 46.7193 39.6034 46.7093 39.3855C46.6993 39.1676 46.7386 38.9503 46.8242 38.7496C46.9097 38.549 47.0394 38.3702 47.2035 38.2266C47.3677 38.083 47.5621 37.9782 47.7723 37.9201ZM50.3348 48.3136C50.1557 49.3674 49.8869 50.4041 49.5314 51.4122C49.4625 51.6069 49.3529 51.7847 49.2098 51.9336C49.0667 52.0825 48.8935 52.1992 48.7017 52.2757C48.51 52.3523 48.3041 52.3871 48.0978 52.3777C47.8916 52.3683 47.6897 52.315 47.5057 52.2213C47.1885 52.052 46.9435 51.7734 46.8161 51.4371C46.6887 51.1008 46.6876 50.7297 46.8129 50.3926C47.1091 49.5441 47.3329 48.672 47.4821 47.7857C47.5159 47.5826 47.5926 47.3891 47.7069 47.2179C47.8213 47.0467 47.9707 46.9019 48.1453 46.7929C48.3199 46.684 48.5157 46.6134 48.7197 46.586C48.9236 46.5585 49.1311 46.5748 49.3283 46.6337C49.6716 46.7433 49.9632 46.9744 50.1485 47.2836C50.3337 47.5928 50.4 47.959 50.3348 48.3136ZM64.8288 52.2213C64.6448 52.315 64.4429 52.3683 64.2366 52.3777C64.0303 52.3871 63.8245 52.3523 63.6327 52.2757C63.4409 52.1992 63.2677 52.0825 63.1247 51.9336C62.9816 51.7847 62.8719 51.6069 62.803 51.4122C62.4476 50.4041 62.1788 49.3674 61.9996 48.3136C61.9349 47.9591 62.0013 47.5931 62.1865 47.2839C62.3717 46.9748 62.6631 46.7437 63.0061 46.6337C63.2033 46.5748 63.4108 46.5585 63.6148 46.586C63.8187 46.6134 64.0145 46.684 64.1891 46.7929C64.3637 46.9019 64.5132 47.0467 64.6275 47.2179C64.7419 47.3891 64.8185 47.5826 64.8523 47.7857C65.0015 48.672 65.2254 49.5441 65.5215 50.3926C65.6469 50.7297 65.6457 51.1008 65.5183 51.4371C65.3909 51.7734 65.1459 52.052 64.8288 52.2213ZM65.4472 40.0083C65.0682 40.7212 64.9358 41.5322 64.8669 42.3377C64.8484 42.5509 64.7829 42.7575 64.6752 42.9425C64.5676 43.1275 64.4203 43.2864 64.244 43.4077C64.0678 43.5291 63.8668 43.61 63.6556 43.6445C63.4444 43.6791 63.2282 43.6665 63.0225 43.6076C62.6759 43.5019 62.3802 43.2726 62.1914 42.9633C62.0025 42.654 61.9336 42.2862 61.9978 41.9295C62.1751 40.8933 62.439 39.8737 62.7867 38.8817C62.9063 38.5266 63.156 38.23 63.4854 38.0516C63.8148 37.8732 64.1995 37.8262 64.5622 37.9201C64.7719 37.9789 64.9657 38.0841 65.1292 38.2279C65.2928 38.3718 65.4218 38.5507 65.5068 38.7512C65.5918 38.9518 65.6306 39.1689 65.6203 39.3866C65.61 39.6042 65.5508 39.8166 65.4472 40.0083Z" fill="#8841AD"/>
</g>
<path d="M70.9241 33.3838C70.9217 33.382 70.9196 33.3799 70.9177 33.3775C70.8564 33.302 70.7805 33.2395 70.6946 33.1939C70.6073 33.1475 70.5115 33.1195 70.413 33.1115C70.3145 33.1035 70.2154 33.1157 70.1218 33.1474C70.0282 33.1791 69.942 33.2296 69.8686 33.2958C69.2545 33.8557 68.6846 34.4622 68.1639 35.11C67.934 35.4062 67.6007 35.6046 67.2308 35.6654C66.8609 35.7263 66.4817 35.6452 66.169 35.4383C66.0046 35.3246 65.8655 35.1781 65.7604 35.008C65.6553 34.838 65.5865 34.648 65.5582 34.4501C65.53 34.2521 65.5429 34.0505 65.5962 33.8578C65.6495 33.6651 65.742 33.4855 65.8679 33.3303C66.4424 32.6119 67.0685 31.9364 67.7413 31.3093C67.8189 31.2383 67.8801 31.1513 67.9207 31.0543C67.9614 30.9574 67.9805 30.8527 67.9767 30.7476C67.9729 30.6425 67.9463 30.5395 67.8988 30.4458C67.8512 30.352 67.7839 30.2696 67.7014 30.2044C64.4011 27.6444 60.3435 26.2551 56.1672 26.2551C51.991 26.2551 47.9333 27.6444 44.633 30.2044C44.5505 30.2696 44.4832 30.352 44.4357 30.4458C44.3882 30.5395 44.3616 30.6425 44.3578 30.7476C44.354 30.8527 44.3731 30.9574 44.4137 31.0543C44.4543 31.1513 44.5155 31.2383 44.5931 31.3093C45.2543 31.9255 45.8707 32.5881 46.4375 33.2922C46.6663 33.5705 46.7861 33.9227 46.7744 34.2829C46.7627 34.6431 46.6204 34.9867 46.374 35.2497C46.2305 35.3978 46.0572 35.5136 45.8654 35.5894C45.6737 35.6652 45.468 35.6993 45.2621 35.6893C45.0562 35.6793 44.8547 35.6256 44.6712 35.5316C44.4877 35.4377 44.3263 35.3057 44.1978 35.1444C43.6678 34.4826 43.0863 33.8638 42.4586 33.294C42.3851 33.2282 42.299 33.1781 42.2055 33.1467C42.112 33.1153 42.0131 33.1033 41.9148 33.1115C41.8165 33.1196 41.7209 33.1477 41.6339 33.1941C41.5468 33.2404 41.4701 33.3041 41.4085 33.3811C38.7491 36.7163 37.3008 40.8562 37.3008 45.1224C37.3008 49.3887 38.7491 53.5286 41.4085 56.8638C41.4703 56.941 41.5472 57.0047 41.6345 57.051C41.7217 57.0974 41.8176 57.1254 41.916 57.1334C42.0145 57.1414 42.1136 57.1292 42.2072 57.0975C42.3008 57.0658 42.387 57.0153 42.4604 56.9491C43.0745 56.3892 43.6444 55.7827 44.1651 55.1349C44.395 54.8387 44.7283 54.6403 45.0982 54.5794C45.4681 54.5186 45.8473 54.5997 46.16 54.8065C46.3248 54.9199 46.4644 55.0661 46.57 55.2359C46.6756 55.4058 46.745 55.5956 46.7738 55.7936C46.8025 55.9915 46.7901 56.1933 46.7372 56.3862C46.6844 56.5791 46.5922 56.759 46.4665 56.9146C45.892 57.633 45.2659 58.3085 44.5931 58.9356C44.5155 59.0066 44.4543 59.0936 44.4137 59.1906C44.3731 59.2875 44.354 59.3922 44.3578 59.4973C44.3616 59.6023 44.3882 59.7053 44.4357 59.7991C44.4832 59.8929 44.5505 59.9753 44.633 60.0405C47.9333 62.6004 51.991 63.9898 56.1672 63.9898C60.3435 63.9898 64.4011 62.6004 67.7014 60.0405C67.7839 59.9753 67.8512 59.8929 67.8988 59.7991C67.9463 59.7053 67.9729 59.6023 67.9767 59.4973C67.9805 59.3922 67.9614 59.2875 67.9207 59.1906C67.8801 59.0936 67.8189 59.0066 67.7413 58.9356C67.0685 58.3085 66.4424 57.633 65.8679 56.9146C65.7433 56.759 65.6519 56.5794 65.5997 56.387C65.5475 56.1946 65.5355 55.9934 65.5644 55.7961C65.5933 55.5989 65.6626 55.4097 65.7679 55.2403C65.8731 55.071 66.0121 54.9252 66.1762 54.812C66.4889 54.6051 66.8682 54.524 67.2381 54.5849C67.608 54.6458 67.9412 54.8442 68.1712 55.1404C68.6918 55.7881 69.2618 56.3946 69.8759 56.9545C69.9493 57.0207 70.0354 57.0712 70.129 57.1029C70.2226 57.1346 70.3217 57.1468 70.4202 57.1388C70.5187 57.1309 70.6145 57.1028 70.7018 57.0565C70.7891 57.0101 70.866 56.9464 70.9278 56.8693C73.5872 53.534 75.0355 49.3942 75.0355 45.1279C75.0355 40.8631 73.5882 36.7247 70.9306 33.3901C70.9287 33.3877 70.9265 33.3856 70.9241 33.3838ZM47.7723 37.9201C48.1347 37.8266 48.519 37.8735 48.8483 38.0515C49.1775 38.2294 49.4274 38.5253 49.5477 38.8798C49.8933 39.8706 50.1566 40.8882 50.3348 41.9222C50.3791 42.1336 50.3756 42.3523 50.3247 42.5621C50.2737 42.772 50.1766 42.9679 50.0404 43.1355C49.9042 43.3031 49.7322 43.4381 49.5372 43.5308C49.3422 43.6234 49.1289 43.6714 48.913 43.6711C48.5478 43.6723 48.1956 43.5357 47.9266 43.2885C47.6577 43.0413 47.4918 42.7018 47.4622 42.3377C47.3932 41.5322 47.2608 40.7212 46.8818 40.0083C46.7783 39.8163 46.7193 39.6034 46.7093 39.3855C46.6993 39.1676 46.7386 38.9503 46.8242 38.7496C46.9097 38.549 47.0394 38.3702 47.2035 38.2266C47.3677 38.083 47.5621 37.9782 47.7723 37.9201ZM50.3348 48.3136C50.1557 49.3674 49.8869 50.4041 49.5314 51.4122C49.4625 51.6069 49.3529 51.7847 49.2098 51.9336C49.0667 52.0825 48.8935 52.1992 48.7017 52.2757C48.51 52.3523 48.3041 52.3871 48.0978 52.3777C47.8916 52.3683 47.6897 52.315 47.5057 52.2213C47.1885 52.052 46.9435 51.7734 46.8161 51.4371C46.6887 51.1008 46.6876 50.7297 46.8129 50.3926C47.1091 49.5441 47.3329 48.672 47.4821 47.7857C47.5159 47.5826 47.5926 47.3891 47.7069 47.2179C47.8213 47.0467 47.9707 46.9019 48.1453 46.7929C48.3199 46.684 48.5157 46.6134 48.7197 46.586C48.9236 46.5585 49.1311 46.5748 49.3283 46.6337C49.6716 46.7433 49.9632 46.9744 50.1485 47.2836C50.3337 47.5928 50.4 47.959 50.3348 48.3136ZM64.8288 52.2213C64.6448 52.315 64.4429 52.3683 64.2366 52.3777C64.0303 52.3871 63.8245 52.3523 63.6327 52.2757C63.4409 52.1992 63.2677 52.0825 63.1247 51.9336C62.9816 51.7847 62.8719 51.6069 62.803 51.4122C62.4476 50.4041 62.1788 49.3674 61.9996 48.3136C61.9349 47.9591 62.0013 47.5931 62.1865 47.2839C62.3717 46.9748 62.6631 46.7437 63.0061 46.6337C63.2033 46.5748 63.4108 46.5585 63.6148 46.586C63.8187 46.6134 64.0145 46.684 64.1891 46.7929C64.3637 46.9019 64.5132 47.0467 64.6275 47.2179C64.7419 47.3891 64.8185 47.5826 64.8523 47.7857C65.0015 48.672 65.2254 49.5441 65.5215 50.3926C65.6469 50.7297 65.6457 51.1008 65.5183 51.4371C65.3909 51.7734 65.1459 52.052 64.8288 52.2213ZM65.4472 40.0083C65.0682 40.7212 64.9358 41.5322 64.8669 42.3377C64.8484 42.5509 64.7829 42.7575 64.6752 42.9425C64.5676 43.1275 64.4203 43.2864 64.244 43.4077C64.0678 43.5291 63.8668 43.61 63.6556 43.6445C63.4444 43.6791 63.2282 43.6665 63.0225 43.6076C62.6759 43.5019 62.3802 43.2726 62.1914 42.9633C62.0025 42.654 61.9336 42.2862 61.9978 41.9295C62.1751 40.8933 62.439 39.8737 62.7867 38.8817C62.9063 38.5266 63.156 38.23 63.4854 38.0516C63.8148 37.8732 64.1995 37.8262 64.5622 37.9201C64.7719 37.9789 64.9657 38.0841 65.1292 38.2279C65.2928 38.3718 65.4218 38.5507 65.5068 38.7512C65.5918 38.9518 65.6306 39.1689 65.6203 39.3866C65.61 39.6042 65.5508 39.8166 65.4472 40.0083Z" fill="url(#paint3_linear_982_38198)"/>
</g>
<defs>
<filter id="filter0_d_982_38198" x="-0.269533" y="0.3125" width="112.875" height="112.875" filterUnits="userSpaceOnUse" color-interpolation-filters="sRGB">
<feFlood flood-opacity="0" result="BackgroundImageFix"/>
<feColorMatrix in="SourceAlpha" type="matrix" values="0 0 0 0 0 0 0 0 0 0 0 0 0 0 0 0 0 0 127 0" result="hardAlpha"/>
<feOffset dy="10.75"/>
<feGaussianBlur stdDeviation="6.71875"/>
<feColorMatrix type="matrix" values="0 0 0 0 0.00392157 0 0 0 0 0.0196078 0 0 0 0 0.2 0 0 0 0.08 0"/>
<feBlend mode="normal" in2="BackgroundImageFix" result="effect1_dropShadow_982_38198"/>
<feBlend mode="normal" in="SourceGraphic" in2="effect1_dropShadow_982_38198" result="shape"/>
</filter>
<filter id="filter1_i_982_38198" x="25.8926" y="15.2857" width="60.1113" height="60.1122" filterUnits="userSpaceOnUse" color-interpolation-filters="sRGB">
<feFlood flood-opacity="0" result="BackgroundImageFix"/>
<feBlend mode="normal" in="SourceGraphic" in2="BackgroundImageFix" result="shape"/>
<feColorMatrix in="SourceAlpha" type="matrix" values="0 0 0 0 0 0 0 0 0 0 0 0 0 0 0 0 0 0 127 0" result="hardAlpha"/>
<feOffset/>
<feGaussianBlur stdDeviation="3.5102"/>
<feComposite in2="hardAlpha" operator="arithmetic" k2="-1" k3="1"/>
<feColorMatrix type="matrix" values="0 0 0 0 0 0 0 0 0 0 0 0 0 0 0 0 0 0 0.6 0"/>
<feBlend mode="normal" in2="shape" result="effect1_innerShadow_982_38198"/>
</filter>
<filter id="filter2_f_982_38198" x="16.2396" y="5.19387" width="79.8568" height="79.8572" filterUnits="userSpaceOnUse" color-interpolation-filters="sRGB">
<feFlood flood-opacity="0" result="BackgroundImageFix"/>
<feBlend mode="normal" in="SourceGraphic" in2="BackgroundImageFix" result="shape"/>
<feGaussianBlur stdDeviation="10.5306" result="effect1_foregroundBlur_982_38198"/>
</filter>
<linearGradient id="paint0_linear_982_38198" x1="56.168" y1="2.12244" x2="56.168" y2="88.1224" gradientUnits="userSpaceOnUse">
<stop stop-color="#8841AD"/>
<stop offset="1" stop-color="#60277E"/>
</linearGradient>
<linearGradient id="paint1_linear_982_38198" x1="56.168" y1="12.2143" x2="56.168" y2="78.0306" gradientUnits="userSpaceOnUse">
<stop stop-opacity="0.06"/>
<stop offset="1" stop-opacity="0"/>
</linearGradient>
<linearGradient id="paint2_linear_982_38198" x1="56.1673" y1="12.653" x2="56.1673" y2="77.5918" gradientUnits="userSpaceOnUse">
<stop stop-color="#8841AD"/>
<stop offset="1" stop-color="#60277E"/>
</linearGradient>
<linearGradient id="paint3_linear_982_38198" x1="56.1681" y1="26.2551" x2="56.1681" y2="63.9898" gradientUnits="userSpaceOnUse">
<stop stop-color="#8841AD"/>
<stop offset="1" stop-color="#60277E"/>
</linearGradient>
</defs>
</svg>
