<svg width="111" height="114" viewBox="0 0 111 114" fill="none" xmlns="http://www.w3.org/2000/svg">
<g filter="url(#filter0_d_982_38188)">
<path fill-rule="evenodd" clip-rule="evenodd" d="M13.7362 45.5612C13.2707 46.7122 13.4407 48.0559 14.2463 49.0661L17.2574 52.842C17.9666 53.7313 18.2009 54.9092 17.886 56.0023L16.5491 60.6431C16.0957 62.2167 16.7908 63.8948 18.2241 64.687L22.451 67.0231C23.4466 67.5734 24.1138 68.572 24.2412 69.7023L24.7819 74.5015C24.9653 76.1289 26.2497 77.4132 27.877 77.5966L32.6762 78.1373C33.8066 78.2647 34.8051 78.9319 35.3554 79.9275L37.6915 84.1544C38.4837 85.5877 40.1618 86.2828 41.7355 85.8294L46.3762 84.4925C47.4693 84.1776 48.6472 84.4119 49.5365 85.1211L53.3124 88.1322C54.5928 89.1533 56.4091 89.1533 57.6895 88.1322L61.4654 85.1211C62.3548 84.4119 63.5326 84.1776 64.6257 84.4925L69.2665 85.8294C70.8402 86.2828 72.5182 85.5877 73.3104 84.1544L75.6466 79.9275C76.1968 78.9319 77.1954 78.2647 78.3257 78.1373L83.1249 77.5966C84.7523 77.4132 86.0366 76.1289 86.22 74.5015L86.7607 69.7023C86.8881 68.572 87.5553 67.5734 88.5509 67.0231L92.7778 64.687C94.2111 63.8948 94.9062 62.2167 94.4529 60.6431L93.1159 56.0023C92.801 54.9092 93.0353 53.7313 93.7445 52.842L96.7557 49.0661C97.5612 48.0559 97.7313 46.7122 97.2657 45.5612H13.7362Z" fill="#1D8859"/>
<path d="M53.3114 3.86775C54.5918 2.84667 56.4082 2.84667 57.6886 3.86775L61.4644 6.87889C62.3538 7.58812 63.5317 7.82242 64.6247 7.50751L69.2655 6.17055C70.8392 5.71718 72.5173 6.41226 73.3095 7.8456L75.6456 12.0725C76.1958 13.0681 77.1944 13.7353 78.3248 13.8627L83.1239 14.4034C84.7513 14.5868 86.0357 15.8711 86.219 17.4985L86.7598 22.2977C86.8871 23.428 87.5544 24.4266 88.5499 24.9768L92.7768 27.313C94.2102 28.1052 94.9053 29.7832 94.4519 31.3569L93.1149 35.9977C92.8 37.0908 93.0343 38.2686 93.7435 39.158L96.7547 42.9339C97.7758 44.2143 97.7758 46.0306 96.7547 47.311L93.7435 51.0869C93.0343 51.9762 92.8 53.1541 93.1149 54.2472L94.4519 58.888C94.9053 60.4616 94.2102 62.1397 92.7768 62.9319L88.5499 65.268C87.5544 65.8183 86.8871 66.8168 86.7598 67.9472L86.219 72.7464C86.0357 74.3737 84.7513 75.6581 83.1239 75.8415L78.3248 76.3822C77.1944 76.5096 76.1958 77.1768 75.6456 78.1724L73.3095 82.3993C72.5173 83.8326 70.8392 84.5277 69.2655 84.0743L64.6247 82.7374C63.5317 82.4225 62.3538 82.6568 61.4644 83.366L57.6886 86.3771C56.4082 87.3982 54.5918 87.3982 53.3114 86.3771L49.5356 83.366C48.6462 82.6568 47.4683 82.4225 46.3753 82.7374L41.7345 84.0743C40.1608 84.5277 38.4827 83.8326 37.6905 82.3993L35.3544 78.1724C34.8042 77.1768 33.8056 76.5096 32.6752 76.3822L27.8761 75.8415C26.2487 75.6581 24.9643 74.3737 24.781 72.7464L24.2402 67.9472C24.1129 66.8168 23.4456 65.8183 22.4501 65.268L18.2232 62.9319C16.7898 62.1397 16.0947 60.4616 16.5481 58.888L17.8851 54.2472C18.2 53.1541 17.9657 51.9762 17.2565 51.0869L14.2453 47.311C13.2242 46.0306 13.2242 44.2143 14.2453 42.9339L17.2565 39.158C17.9657 38.2686 18.2 37.0908 17.8851 35.9977L16.5481 31.3569C16.0947 29.7832 16.7898 28.1052 18.2232 27.313L22.4501 24.9768C23.4456 24.4266 24.1129 23.428 24.2402 22.2977L24.781 17.4985C24.9643 15.8711 26.2487 14.5868 27.8761 14.4034L32.6752 13.8627C33.8056 13.7353 34.8042 13.0681 35.3544 12.0725L37.6905 7.8456C38.4827 6.41226 40.1608 5.71718 41.7345 6.17055L46.3753 7.50751C47.4683 7.82242 48.6462 7.58812 49.5356 6.87889L53.3114 3.86775Z" fill="url(#paint0_linear_982_38188)"/>
<ellipse cx="55.5" cy="45.1224" rx="32.9082" ry="32.9082" transform="rotate(-180 55.5 45.1224)" fill="url(#paint1_linear_982_38188)"/>
<circle cx="55.5013" cy="45.1224" r="32.4694" transform="rotate(-180 55.5013 45.1224)" fill="url(#paint2_linear_982_38188)"/>
<g filter="url(#filter1_i_982_38188)">
<path d="M55.2807 75.398C71.8803 75.398 85.3369 61.9414 85.3369 45.3418C85.3369 28.7423 71.8803 15.2857 55.2807 15.2857C38.6812 15.2857 25.2246 28.7423 25.2246 45.3418C25.2246 61.9414 38.6812 75.398 55.2807 75.398Z" fill="#181A32"/>
</g>
<g opacity="0.32" filter="url(#filter2_f_982_38188)">
<path d="M70.2561 33.3838C70.2537 33.382 70.2516 33.3799 70.2497 33.3775C70.1884 33.302 70.1125 33.2395 70.0266 33.1939C69.9393 33.1475 69.8435 33.1195 69.745 33.1115C69.6465 33.1035 69.5474 33.1157 69.4538 33.1474C69.3602 33.1791 69.2741 33.2296 69.2007 33.2958C68.5866 33.8557 68.0166 34.4622 67.4959 35.11C67.266 35.4062 66.9327 35.6046 66.5628 35.6654C66.1929 35.7263 65.8137 35.6452 65.501 35.4383C65.3367 35.3246 65.1976 35.1781 65.0925 35.008C64.9874 34.838 64.9185 34.648 64.8902 34.4501C64.862 34.2521 64.8749 34.0505 64.9282 33.8578C64.9815 33.6651 65.074 33.4855 65.2 33.3303C65.7744 32.6119 66.4006 31.9364 67.0734 31.3093C67.1509 31.2383 67.2121 31.1513 67.2528 31.0543C67.2934 30.9574 67.3125 30.8527 67.3087 30.7476C67.3049 30.6425 67.2783 30.5395 67.2308 30.4458C67.1833 30.352 67.1159 30.2696 67.0335 30.2044C63.7332 27.6444 59.6755 26.2551 55.4993 26.2551C51.323 26.2551 47.2653 27.6444 43.965 30.2044C43.8826 30.2696 43.8152 30.352 43.7677 30.4458C43.7202 30.5395 43.6936 30.6425 43.6898 30.7476C43.686 30.8527 43.7051 30.9574 43.7457 31.0543C43.7864 31.1513 43.8476 31.2383 43.9251 31.3093C44.5863 31.9255 45.2027 32.5881 45.7695 33.2922C45.9984 33.5705 46.1181 33.9227 46.1064 34.2829C46.0948 34.6431 45.9524 34.9867 45.706 35.2497C45.5626 35.3978 45.3892 35.5136 45.1975 35.5894C45.0057 35.6652 44.8001 35.6993 44.5941 35.6893C44.3882 35.6793 44.1868 35.6256 44.0032 35.5316C43.8197 35.4377 43.6583 35.3057 43.5298 35.1444C42.9999 34.4826 42.4183 33.8638 41.7906 33.294C41.7171 33.2282 41.631 33.1781 41.5375 33.1467C41.444 33.1153 41.3451 33.1033 41.2468 33.1115C41.1485 33.1196 41.053 33.1477 40.9659 33.1941C40.8789 33.2404 40.8022 33.3041 40.7405 33.3811C38.0811 36.7163 36.6328 40.8562 36.6328 45.1224C36.6328 49.3887 38.0811 53.5286 40.7405 56.8638C40.8023 56.941 40.8792 57.0047 40.9665 57.051C41.0538 57.0974 41.1496 57.1254 41.2481 57.1334C41.3466 57.1414 41.4457 57.1292 41.5393 57.0975C41.6329 57.0658 41.719 57.0153 41.7924 56.9491C42.4065 56.3892 42.9765 55.7827 43.4971 55.1349C43.7271 54.8387 44.0603 54.6403 44.4302 54.5794C44.8001 54.5186 45.1794 54.5997 45.4921 54.8065C45.6568 54.9199 45.7964 55.0661 45.902 55.2359C46.0076 55.4058 46.077 55.5956 46.1058 55.7936C46.1346 55.9915 46.1221 56.1933 46.0693 56.3862C46.0164 56.5791 45.9242 56.759 45.7985 56.9146C45.2241 57.633 44.5979 58.3085 43.9251 58.9356C43.8476 59.0066 43.7864 59.0936 43.7457 59.1906C43.7051 59.2875 43.686 59.3922 43.6898 59.4973C43.6936 59.6023 43.7202 59.7053 43.7677 59.7991C43.8152 59.8929 43.8826 59.9753 43.965 60.0405C47.2653 62.6004 51.323 63.9898 55.4993 63.9898C59.6755 63.9898 63.7332 62.6004 67.0335 60.0405C67.1159 59.9753 67.1833 59.8929 67.2308 59.7991C67.2783 59.7053 67.3049 59.6023 67.3087 59.4973C67.3125 59.3922 67.2934 59.2875 67.2528 59.1906C67.2121 59.0936 67.1509 59.0066 67.0734 58.9356C66.4006 58.3085 65.7744 57.633 65.2 56.9146C65.0753 56.759 64.984 56.5794 64.9318 56.387C64.8795 56.1946 64.8675 55.9934 64.8964 55.7961C64.9254 55.5989 64.9946 55.4097 65.0999 55.2403C65.2052 55.071 65.3442 54.9252 65.5083 54.812C65.8209 54.6051 66.2002 54.524 66.5701 54.5849C66.94 54.6458 67.2733 54.8442 67.5032 55.1404C68.0239 55.7881 68.5938 56.3946 69.2079 56.9545C69.2813 57.0207 69.3675 57.0712 69.4611 57.1029C69.5547 57.1346 69.6537 57.1468 69.7522 57.1388C69.8507 57.1309 69.9466 57.1028 70.0338 57.0565C70.1211 57.0101 70.198 56.9464 70.2598 56.8693C72.9192 53.534 74.3675 49.3942 74.3675 45.1279C74.3675 40.8631 72.9202 36.7247 70.2626 33.3901C70.2607 33.3877 70.2586 33.3856 70.2561 33.3838ZM47.1043 37.9201C47.4667 37.8266 47.851 37.8735 48.1803 38.0515C48.5096 38.2294 48.7594 38.5253 48.8798 38.8798C49.2254 39.8706 49.4886 40.8882 49.6669 41.9222C49.7111 42.1336 49.7077 42.3523 49.6567 42.5621C49.6058 42.772 49.5087 42.9679 49.3724 43.1355C49.2362 43.3031 49.0643 43.4381 48.8692 43.5308C48.6742 43.6234 48.4609 43.6714 48.245 43.6711C47.8798 43.6723 47.5276 43.5357 47.2587 43.2885C46.9897 43.0413 46.8239 42.7018 46.7942 42.3377C46.7253 41.5322 46.5929 40.7212 46.2138 40.0083C46.1103 39.8163 46.0513 39.6034 46.0414 39.3855C46.0314 39.1676 46.0706 38.9503 46.1562 38.7496C46.2417 38.549 46.3714 38.3702 46.5356 38.2266C46.6997 38.083 46.8941 37.9782 47.1043 37.9201ZM49.6669 48.3136C49.4877 49.3674 49.2189 50.4041 48.8635 51.4122C48.7945 51.6069 48.6849 51.7847 48.5418 51.9336C48.3987 52.0825 48.2255 52.1992 48.0338 52.2757C47.842 52.3523 47.6361 52.3871 47.4299 52.3777C47.2236 52.3683 47.0217 52.315 46.8377 52.2213C46.5206 52.052 46.2756 51.7734 46.1482 51.4371C46.0208 51.1008 46.0196 50.7297 46.1449 50.3926C46.4411 49.5441 46.665 48.672 46.8141 47.7857C46.848 47.5826 46.9246 47.3891 47.039 47.2179C47.1533 47.0467 47.3028 46.9019 47.4774 46.7929C47.652 46.684 47.8478 46.6134 48.0517 46.586C48.2557 46.5585 48.4631 46.5748 48.6603 46.6337C49.0036 46.7433 49.2952 46.9744 49.4805 47.2836C49.6658 47.5928 49.732 47.959 49.6669 48.3136ZM64.1608 52.2213C63.9768 52.315 63.7749 52.3683 63.5686 52.3777C63.3624 52.3871 63.1565 52.3523 62.9647 52.2757C62.773 52.1992 62.5998 52.0825 62.4567 51.9336C62.3136 51.7847 62.204 51.6069 62.1351 51.4122C61.7796 50.4041 61.5108 49.3674 61.3317 48.3136C61.2669 47.9591 61.3333 47.5931 61.5185 47.2839C61.7037 46.9748 61.9951 46.7437 62.3382 46.6337C62.5354 46.5748 62.7428 46.5585 62.9468 46.586C63.1507 46.6134 63.3465 46.684 63.5211 46.7929C63.6958 46.9019 63.8452 47.0467 63.9595 47.2179C64.0739 47.3891 64.1505 47.5826 64.1844 47.7857C64.3336 48.672 64.5574 49.5441 64.8536 50.3926C64.9789 50.7297 64.9777 51.1008 64.8503 51.4371C64.7229 51.7734 64.4779 52.052 64.1608 52.2213ZM64.7792 40.0083C64.4002 40.7212 64.2678 41.5322 64.1989 42.3377C64.1804 42.5509 64.115 42.7575 64.0073 42.9425C63.8996 43.1275 63.7523 43.2864 63.5761 43.4077C63.3998 43.5291 63.1988 43.61 62.9877 43.6445C62.7765 43.6791 62.5602 43.6665 62.3545 43.6076C62.008 43.5019 61.7123 43.2726 61.5234 42.9633C61.3345 42.654 61.2657 42.2862 61.3298 41.9295C61.5071 40.8933 61.771 39.8737 62.1187 38.8817C62.2384 38.5266 62.488 38.23 62.8174 38.0516C63.1468 37.8732 63.5316 37.8262 63.8942 37.9201C64.1039 37.9789 64.2977 38.0841 64.4613 38.2279C64.6248 38.3718 64.7538 38.5507 64.8389 38.7512C64.9239 38.9518 64.9626 39.1689 64.9523 39.3866C64.942 39.6042 64.8828 39.8166 64.7792 40.0083Z" fill="#46E6A1"/>
</g>
<path d="M70.2561 33.3838C70.2537 33.382 70.2516 33.3799 70.2497 33.3775C70.1884 33.302 70.1125 33.2395 70.0266 33.1939C69.9393 33.1475 69.8435 33.1195 69.745 33.1115C69.6465 33.1035 69.5474 33.1157 69.4538 33.1474C69.3602 33.1791 69.2741 33.2296 69.2007 33.2958C68.5866 33.8557 68.0166 34.4622 67.4959 35.11C67.266 35.4062 66.9327 35.6046 66.5628 35.6654C66.1929 35.7263 65.8137 35.6452 65.501 35.4383C65.3367 35.3246 65.1976 35.1781 65.0925 35.008C64.9874 34.838 64.9185 34.648 64.8902 34.4501C64.862 34.2521 64.8749 34.0505 64.9282 33.8578C64.9815 33.6651 65.074 33.4855 65.2 33.3303C65.7744 32.6119 66.4006 31.9364 67.0734 31.3093C67.1509 31.2383 67.2121 31.1513 67.2528 31.0543C67.2934 30.9574 67.3125 30.8527 67.3087 30.7476C67.3049 30.6425 67.2783 30.5395 67.2308 30.4458C67.1833 30.352 67.1159 30.2696 67.0335 30.2044C63.7332 27.6444 59.6755 26.2551 55.4993 26.2551C51.323 26.2551 47.2653 27.6444 43.965 30.2044C43.8826 30.2696 43.8152 30.352 43.7677 30.4458C43.7202 30.5395 43.6936 30.6425 43.6898 30.7476C43.686 30.8527 43.7051 30.9574 43.7457 31.0543C43.7864 31.1513 43.8476 31.2383 43.9251 31.3093C44.5863 31.9255 45.2027 32.5881 45.7695 33.2922C45.9984 33.5705 46.1181 33.9227 46.1064 34.2829C46.0948 34.6431 45.9524 34.9867 45.706 35.2497C45.5626 35.3978 45.3892 35.5136 45.1975 35.5894C45.0057 35.6652 44.8001 35.6993 44.5941 35.6893C44.3882 35.6793 44.1868 35.6256 44.0032 35.5316C43.8197 35.4377 43.6583 35.3057 43.5298 35.1444C42.9999 34.4826 42.4183 33.8638 41.7906 33.294C41.7171 33.2282 41.631 33.1781 41.5375 33.1467C41.444 33.1153 41.3451 33.1033 41.2468 33.1115C41.1485 33.1196 41.053 33.1477 40.9659 33.1941C40.8789 33.2404 40.8022 33.3041 40.7405 33.3811C38.0811 36.7163 36.6328 40.8562 36.6328 45.1224C36.6328 49.3887 38.0811 53.5286 40.7405 56.8638C40.8023 56.941 40.8792 57.0047 40.9665 57.051C41.0538 57.0974 41.1496 57.1254 41.2481 57.1334C41.3466 57.1414 41.4457 57.1292 41.5393 57.0975C41.6329 57.0658 41.719 57.0153 41.7924 56.9491C42.4065 56.3892 42.9765 55.7827 43.4971 55.1349C43.7271 54.8387 44.0603 54.6403 44.4302 54.5794C44.8001 54.5186 45.1794 54.5997 45.4921 54.8065C45.6568 54.9199 45.7964 55.0661 45.902 55.2359C46.0076 55.4058 46.077 55.5956 46.1058 55.7936C46.1346 55.9915 46.1221 56.1933 46.0693 56.3862C46.0164 56.5791 45.9242 56.759 45.7985 56.9146C45.2241 57.633 44.5979 58.3085 43.9251 58.9356C43.8476 59.0066 43.7864 59.0936 43.7457 59.1906C43.7051 59.2875 43.686 59.3922 43.6898 59.4973C43.6936 59.6023 43.7202 59.7053 43.7677 59.7991C43.8152 59.8929 43.8826 59.9753 43.965 60.0405C47.2653 62.6004 51.323 63.9898 55.4993 63.9898C59.6755 63.9898 63.7332 62.6004 67.0335 60.0405C67.1159 59.9753 67.1833 59.8929 67.2308 59.7991C67.2783 59.7053 67.3049 59.6023 67.3087 59.4973C67.3125 59.3922 67.2934 59.2875 67.2528 59.1906C67.2121 59.0936 67.1509 59.0066 67.0734 58.9356C66.4006 58.3085 65.7744 57.633 65.2 56.9146C65.0753 56.759 64.984 56.5794 64.9318 56.387C64.8795 56.1946 64.8675 55.9934 64.8964 55.7961C64.9254 55.5989 64.9946 55.4097 65.0999 55.2403C65.2052 55.071 65.3442 54.9252 65.5083 54.812C65.8209 54.6051 66.2002 54.524 66.5701 54.5849C66.94 54.6458 67.2733 54.8442 67.5032 55.1404C68.0239 55.7881 68.5938 56.3946 69.2079 56.9545C69.2813 57.0207 69.3675 57.0712 69.4611 57.1029C69.5547 57.1346 69.6537 57.1468 69.7522 57.1388C69.8507 57.1309 69.9466 57.1028 70.0338 57.0565C70.1211 57.0101 70.198 56.9464 70.2598 56.8693C72.9192 53.534 74.3675 49.3942 74.3675 45.1279C74.3675 40.8631 72.9202 36.7247 70.2626 33.3901C70.2607 33.3877 70.2586 33.3856 70.2561 33.3838ZM47.1043 37.9201C47.4667 37.8266 47.851 37.8735 48.1803 38.0515C48.5096 38.2294 48.7594 38.5253 48.8798 38.8798C49.2254 39.8706 49.4886 40.8882 49.6669 41.9222C49.7111 42.1336 49.7077 42.3523 49.6567 42.5621C49.6058 42.772 49.5087 42.9679 49.3724 43.1355C49.2362 43.3031 49.0643 43.4381 48.8692 43.5308C48.6742 43.6234 48.4609 43.6714 48.245 43.6711C47.8798 43.6723 47.5276 43.5357 47.2587 43.2885C46.9897 43.0413 46.8239 42.7018 46.7942 42.3377C46.7253 41.5322 46.5929 40.7212 46.2138 40.0083C46.1103 39.8163 46.0513 39.6034 46.0414 39.3855C46.0314 39.1676 46.0706 38.9503 46.1562 38.7496C46.2417 38.549 46.3714 38.3702 46.5356 38.2266C46.6997 38.083 46.8941 37.9782 47.1043 37.9201ZM49.6669 48.3136C49.4877 49.3674 49.2189 50.4041 48.8635 51.4122C48.7945 51.6069 48.6849 51.7847 48.5418 51.9336C48.3987 52.0825 48.2255 52.1992 48.0338 52.2757C47.842 52.3523 47.6361 52.3871 47.4299 52.3777C47.2236 52.3683 47.0217 52.315 46.8377 52.2213C46.5206 52.052 46.2756 51.7734 46.1482 51.4371C46.0208 51.1008 46.0196 50.7297 46.1449 50.3926C46.4411 49.5441 46.665 48.672 46.8141 47.7857C46.848 47.5826 46.9246 47.3891 47.039 47.2179C47.1533 47.0467 47.3028 46.9019 47.4774 46.7929C47.652 46.684 47.8478 46.6134 48.0517 46.586C48.2557 46.5585 48.4631 46.5748 48.6603 46.6337C49.0036 46.7433 49.2952 46.9744 49.4805 47.2836C49.6658 47.5928 49.732 47.959 49.6669 48.3136ZM64.1608 52.2213C63.9768 52.315 63.7749 52.3683 63.5686 52.3777C63.3624 52.3871 63.1565 52.3523 62.9647 52.2757C62.773 52.1992 62.5998 52.0825 62.4567 51.9336C62.3136 51.7847 62.204 51.6069 62.1351 51.4122C61.7796 50.4041 61.5108 49.3674 61.3317 48.3136C61.2669 47.9591 61.3333 47.5931 61.5185 47.2839C61.7037 46.9748 61.9951 46.7437 62.3382 46.6337C62.5354 46.5748 62.7428 46.5585 62.9468 46.586C63.1507 46.6134 63.3465 46.684 63.5211 46.7929C63.6958 46.9019 63.8452 47.0467 63.9595 47.2179C64.0739 47.3891 64.1505 47.5826 64.1844 47.7857C64.3336 48.672 64.5574 49.5441 64.8536 50.3926C64.9789 50.7297 64.9777 51.1008 64.8503 51.4371C64.7229 51.7734 64.4779 52.052 64.1608 52.2213ZM64.7792 40.0083C64.4002 40.7212 64.2678 41.5322 64.1989 42.3377C64.1804 42.5509 64.115 42.7575 64.0073 42.9425C63.8996 43.1275 63.7523 43.2864 63.5761 43.4077C63.3998 43.5291 63.1988 43.61 62.9877 43.6445C62.7765 43.6791 62.5602 43.6665 62.3545 43.6076C62.008 43.5019 61.7123 43.2726 61.5234 42.9633C61.3345 42.654 61.2657 42.2862 61.3298 41.9295C61.5071 40.8933 61.771 39.8737 62.1187 38.8817C62.2384 38.5266 62.488 38.23 62.8174 38.0516C63.1468 37.8732 63.5316 37.8262 63.8942 37.9201C64.1039 37.9789 64.2977 38.0841 64.4613 38.2279C64.6248 38.3718 64.7538 38.5507 64.8389 38.7512C64.9239 38.9518 64.9626 39.1689 64.9523 39.3866C64.942 39.6042 64.8828 39.8166 64.7792 40.0083Z" fill="url(#paint3_linear_982_38188)"/>
</g>
<defs>
<filter id="filter0_d_982_38188" x="-0.937502" y="0.3125" width="112.875" height="112.875" filterUnits="userSpaceOnUse" color-interpolation-filters="sRGB">
<feFlood flood-opacity="0" result="BackgroundImageFix"/>
<feColorMatrix in="SourceAlpha" type="matrix" values="0 0 0 0 0 0 0 0 0 0 0 0 0 0 0 0 0 0 127 0" result="hardAlpha"/>
<feOffset dy="10.75"/>
<feGaussianBlur stdDeviation="6.71875"/>
<feColorMatrix type="matrix" values="0 0 0 0 0.00392157 0 0 0 0 0.0196078 0 0 0 0 0.2 0 0 0 0.08 0"/>
<feBlend mode="normal" in2="BackgroundImageFix" result="effect1_dropShadow_982_38188"/>
<feBlend mode="normal" in="SourceGraphic" in2="effect1_dropShadow_982_38188" result="shape"/>
</filter>
<filter id="filter1_i_982_38188" x="25.2246" y="15.2857" width="60.1113" height="60.1122" filterUnits="userSpaceOnUse" color-interpolation-filters="sRGB">
<feFlood flood-opacity="0" result="BackgroundImageFix"/>
<feBlend mode="normal" in="SourceGraphic" in2="BackgroundImageFix" result="shape"/>
<feColorMatrix in="SourceAlpha" type="matrix" values="0 0 0 0 0 0 0 0 0 0 0 0 0 0 0 0 0 0 127 0" result="hardAlpha"/>
<feOffset/>
<feGaussianBlur stdDeviation="3.5102"/>
<feComposite in2="hardAlpha" operator="arithmetic" k2="-1" k3="1"/>
<feColorMatrix type="matrix" values="0 0 0 0 0 0 0 0 0 0 0 0 0 0 0 0 0 0 0.6 0"/>
<feBlend mode="normal" in2="shape" result="effect1_innerShadow_982_38188"/>
</filter>
<filter id="filter2_f_982_38188" x="15.5716" y="5.19387" width="79.8568" height="79.8572" filterUnits="userSpaceOnUse" color-interpolation-filters="sRGB">
<feFlood flood-opacity="0" result="BackgroundImageFix"/>
<feBlend mode="normal" in="SourceGraphic" in2="BackgroundImageFix" result="shape"/>
<feGaussianBlur stdDeviation="10.5306" result="effect1_foregroundBlur_982_38188"/>
</filter>
<linearGradient id="paint0_linear_982_38188" x1="55.5" y1="2.12244" x2="55.5" y2="88.1224" gradientUnits="userSpaceOnUse">
<stop stop-color="#46E6A1"/>
<stop offset="1" stop-color="#26AA71"/>
</linearGradient>
<linearGradient id="paint1_linear_982_38188" x1="55.5" y1="12.2143" x2="55.5" y2="78.0306" gradientUnits="userSpaceOnUse">
<stop stop-opacity="0.06"/>
<stop offset="1" stop-opacity="0"/>
</linearGradient>
<linearGradient id="paint2_linear_982_38188" x1="55.5013" y1="12.653" x2="55.5013" y2="77.5918" gradientUnits="userSpaceOnUse">
<stop stop-color="#46E6A1"/>
<stop offset="1" stop-color="#26AA71"/>
</linearGradient>
<linearGradient id="paint3_linear_982_38188" x1="55.5002" y1="26.2551" x2="55.5002" y2="63.9898" gradientUnits="userSpaceOnUse">
<stop stop-color="#46E6A1"/>
<stop offset="1" stop-color="#26AA71"/>
</linearGradient>
</defs>
</svg>
