<svg width="24" height="24" viewBox="0 0 24 24" fill="none" xmlns="http://www.w3.org/2000/svg">
<path d="M23.6408 14.9031C22.0379 21.3317 15.5261 25.2441 9.09602 23.641C2.66858 22.0382 -1.24421 15.5267 0.359461 9.09847C1.96163 2.6691 8.47345 -1.24365 14.9016 0.359098C21.3313 1.96185 25.2437 8.4741 23.6408 14.9031Z" fill="#F29B49"/>
<path d="M23.6408 14.9031C22.0379 21.3317 15.5261 25.2441 9.09602 23.641C2.66858 22.0382 -1.24421 15.5267 0.359461 9.09847C1.96163 2.6691 8.47345 -1.24365 14.9016 0.359098C21.3313 1.96185 25.2437 8.4741 23.6408 14.9031Z" fill="white" fill-opacity="0.2"/>
<g filter="url(#filter0_i_982_40442)">
<path d="M21.7007 14.4192C20.3649 19.7764 14.9384 23.0367 9.58001 21.7007C4.22382 20.3651 0.963158 14.9389 2.29955 9.58211C3.63469 4.22435 9.06121 0.963756 14.418 2.29937C19.7761 3.63498 23.0364 9.0618 21.7007 14.4192Z" fill="#F29B49"/>
</g>
<path d="M6.99299 14.6212L5.2575 12.3415V14.6212H4V9.4588H5.2575V11.7238L6.97828 9.4588H8.45639L6.45616 11.9885L8.52993 14.6212H6.99299Z" fill="white"/>
<path d="M14.2653 13.405C14.2653 13.7421 14.1764 14.0546 13.9987 14.3426C13.8271 14.6245 13.5697 14.8574 13.2266 15.0412C12.8895 15.219 12.4881 15.317 12.0224 15.3354V16.08H11.4341V15.3262C10.7845 15.2711 10.2605 15.078 9.86221 14.7471C9.46388 14.41 9.25245 13.9535 9.22794 13.3775H10.9009C10.9377 13.7451 11.1154 13.9811 11.4341 14.0853V12.6329C10.9561 12.5103 10.5731 12.3908 10.285 12.2744C10.0032 12.158 9.75496 11.971 9.54048 11.7137C9.32599 11.4563 9.21875 11.1039 9.21875 10.6566C9.21875 10.0989 9.42404 9.65154 9.83463 9.31449C10.2513 8.97744 10.7845 8.78747 11.4341 8.74457V8H12.0224V8.74457C12.6658 8.7936 13.1745 8.9805 13.5483 9.3053C13.9221 9.63009 14.1305 10.0805 14.1734 10.6566H12.4912C12.4544 10.3256 12.2981 10.1111 12.0224 10.0131V11.4379C12.531 11.5788 12.9232 11.7045 13.199 11.8148C13.4748 11.9251 13.7199 12.1089 13.9344 12.3663C14.155 12.6176 14.2653 12.9638 14.2653 13.405ZM10.8825 10.583C10.8825 10.7362 10.9285 10.8649 11.0204 10.9691C11.1185 11.0733 11.2564 11.1652 11.4341 11.2449V9.96714C11.2625 9.99778 11.1277 10.0652 11.0296 10.1694C10.9316 10.2674 10.8825 10.4053 10.8825 10.583ZM12.0224 14.1128C12.2062 14.0822 12.3502 14.0087 12.4544 13.8922C12.5647 13.7758 12.6199 13.6318 12.6199 13.4602C12.6199 13.3009 12.5678 13.1722 12.4636 13.0741C12.3656 12.9699 12.2185 12.8811 12.0224 12.8075V14.1128Z" fill="white"/>
<path d="M14.9551 12.0437C14.9551 11.5338 15.0654 11.0803 15.286 10.6832C15.5066 10.2812 15.813 9.9699 16.2052 9.74928C16.6023 9.52377 17.0509 9.41101 17.551 9.41101C18.1638 9.41101 18.6883 9.57279 19.1247 9.89636C19.561 10.2199 19.8527 10.6612 19.9998 11.22H18.6173C18.5143 11.0043 18.3672 10.8401 18.176 10.7273C17.9897 10.6146 17.7765 10.5582 17.5363 10.5582C17.149 10.5582 16.8352 10.693 16.595 10.9627C16.3547 11.2323 16.2346 11.5926 16.2346 12.0437C16.2346 12.4947 16.3547 12.855 16.595 13.1247C16.8352 13.3943 17.149 13.5291 17.5363 13.5291C17.7765 13.5291 17.9897 13.4728 18.176 13.36C18.3672 13.2472 18.5143 13.083 18.6173 12.8673H19.9998C19.8527 13.4262 19.561 13.8674 19.1247 14.191C18.6883 14.5096 18.1638 14.669 17.551 14.669C17.0509 14.669 16.6023 14.5587 16.2052 14.338C15.813 14.1125 15.5066 13.8012 15.286 13.4041C15.0654 13.007 14.9551 12.5535 14.9551 12.0437Z" fill="white"/>
<defs>
<filter id="filter0_i_982_40442" x="1.5" y="2.00012" width="20.5" height="20.75" filterUnits="userSpaceOnUse" color-interpolation-filters="sRGB">
<feFlood flood-opacity="0" result="BackgroundImageFix"/>
<feBlend mode="normal" in="SourceGraphic" in2="BackgroundImageFix" result="shape"/>
<feColorMatrix in="SourceAlpha" type="matrix" values="0 0 0 0 0 0 0 0 0 0 0 0 0 0 0 0 0 0 127 0" result="hardAlpha"/>
<feOffset dx="-0.5" dy="0.75"/>
<feGaussianBlur stdDeviation="0.5"/>
<feComposite in2="hardAlpha" operator="arithmetic" k2="-1" k3="1"/>
<feColorMatrix type="matrix" values="0 0 0 0 0 0 0 0 0 0 0 0 0 0 0 0 0 0 0.16 0"/>
<feBlend mode="normal" in2="shape" result="effect1_innerShadow_982_40442"/>
</filter>
</defs>
</svg>
