<svg xmlns="http://www.w3.org/2000/svg" width="25" height="24" viewBox="0 0 25 24" fill="none"><path fill-rule="evenodd" clip-rule="evenodd" d="M14.4179 13.7929C14.8084 13.4024 15.4416 13.4024 15.8321 13.7929L21.3321 19.2929C21.7226 19.6834 21.7226 20.3166 21.3321 20.7071C20.9416 21.0976 20.3084 21.0976 19.9179 20.7071L14.4179 15.2071C14.0274 14.8166 14.0274 14.1834 14.4179 13.7929Z" fill="white"/><path fill-rule="evenodd" clip-rule="evenodd" d="M10.625 5C7.86358 5 5.625 7.23858 5.625 10C5.625 12.7614 7.86358 15 10.625 15C13.3864 15 15.625 12.7614 15.625 10C15.625 7.23858 13.3864 5 10.625 5ZM3.625 10C3.625 6.13401 6.75901 3 10.625 3C14.491 3 17.625 6.13401 17.625 10C17.625 13.866 14.491 17 10.625 17C6.75901 17 3.625 13.866 3.625 10Z" fill="white"/></svg>