<svg xmlns="http://www.w3.org/2000/svg" width="25" height="24" viewBox="0 0 25 24" fill="none"><path d="M8.85368 20.672C8.81062 20.6936 8.76753 20.7054 8.71495 20.7075C8.71126 20.684 8.70806 20.6506 8.70806 20.6051V18.0603V17.0603H7.70806H7.50071C6.86221 17.0603 6.31129 16.9165 5.82542 16.6433C5.34952 16.3723 4.96907 15.9913 4.67811 15.4785C4.40602 14.9882 4.25 14.3747 4.25 13.6023V6.45806C4.25 5.6803 4.40196 5.06209 4.66626 4.56916C4.93882 4.07237 5.31564 3.69603 5.81295 3.42392C6.30408 3.15519 6.9237 3 7.70806 3H18.7919C19.5736 3 20.1909 3.15722 20.6807 3.42985L20.6807 3.42987L20.687 3.43334C21.184 3.70524 21.5565 4.08058 21.8226 4.57539L21.8226 4.57542L21.828 4.58531C22.0952 5.06905 22.25 5.68096 22.25 6.45806V13.6023C22.25 14.379 22.0953 14.9959 21.8261 15.4879L21.8261 15.4879L21.8226 15.4944C21.5565 15.9892 21.184 16.3645 20.687 16.6364C20.1959 16.9051 19.5763 17.0603 18.7919 17.0603H13.4102H13.0332L12.75 17.3093L9.31924 20.3253L9.31919 20.3252L9.30954 20.334C9.08529 20.5363 8.93947 20.6304 8.86534 20.6663L8.8653 20.6662L8.85368 20.672Z" stroke="white" stroke-width="2"/><path d="M11.9624 10.9702C11.9624 10.2872 12.3115 9.84681 13.1282 9.24681C13.7077 8.81915 14.1161 8.53191 14.1161 8.00213C14.1161 7.42128 13.5563 7.08298 12.9306 7.08298C12.4168 7.08298 12.0217 7.26809 11.7121 7.65745C11.4882 7.88085 11.3104 8.00213 11.0074 8.00213C10.5069 8.00213 10.25 7.66383 10.25 7.27447C10.25 6.87872 10.4805 6.4766 10.8428 6.17021C11.3301 5.7617 12.1073 5.5 13.1347 5.5C14.9657 5.5 16.25 6.37447 16.25 7.88085C16.25 8.97872 15.5716 9.50851 14.7747 10.0447C14.2346 10.4277 13.9778 10.6511 13.7736 11.1043C13.5497 11.4872 13.3784 11.7809 12.8318 11.7809C12.2522 11.7809 11.9624 11.4298 11.9624 10.9702ZM11.666 13.4915C11.666 12.8787 12.1863 12.483 12.8186 12.483C13.4509 12.483 13.9646 12.8787 13.9646 13.4915C13.9646 14.1043 13.4509 14.5 12.8186 14.5C12.1863 14.5 11.666 14.1043 11.666 13.4915Z" fill="white"/></svg>