<svg xmlns="http://www.w3.org/2000/svg" width="25" height="24" viewBox="0 0 25 24" fill="none"><path fill-rule="evenodd" clip-rule="evenodd" d="M4.375 12H20.375V17C20.375 19.2091 18.5841 21 16.375 21H8.375C6.16586 21 4.375 19.2091 4.375 17V12ZM6.375 14V17C6.375 18.1046 7.27043 19 8.375 19H16.375C17.4796 19 18.375 18.1046 18.375 17V14H6.375Z" fill="white"/><path fill-rule="evenodd" clip-rule="evenodd" d="M3.375 10C3.375 8.34315 4.71815 7 6.375 7H18.375C20.0319 7 21.375 8.34315 21.375 10V11C21.375 12.6569 20.0319 14 18.375 14H6.375C4.71815 14 3.375 12.6569 3.375 11V10ZM6.375 9C5.82272 9 5.375 9.44772 5.375 10V11C5.375 11.5523 5.82272 12 6.375 12H18.375C18.9273 12 19.375 11.5523 19.375 11V10C19.375 9.44772 18.9273 9 18.375 9H6.375Z" fill="white"/><path fill-rule="evenodd" clip-rule="evenodd" d="M7.375 6C7.375 4.34315 8.71815 3 10.375 3C11.1434 3 11.8442 3.28885 12.375 3.76389C12.9058 3.28885 13.6066 3 14.375 3C16.0319 3 17.375 4.34315 17.375 6C17.375 7.65685 16.0319 9 14.375 9H13.375V21H11.375V9H10.375C8.71815 9 7.375 7.65685 7.375 6ZM11.375 7V6C11.375 5.44772 10.9273 5 10.375 5C9.82272 5 9.375 5.44772 9.375 6C9.375 6.55228 9.82272 7 10.375 7H11.375ZM13.375 6V7H14.375C14.9273 7 15.375 6.55228 15.375 6C15.375 5.44772 14.9273 5 14.375 5C13.8227 5 13.375 5.44772 13.375 6Z" fill="white"/></svg>