<svg xmlns="http://www.w3.org/2000/svg" width="25" height="24" viewBox="0 0 25 24" fill="none"><path fill-rule="evenodd" clip-rule="evenodd" d="M17.157 3H17.093C16.6544 2.99999 16.2759 2.99998 15.9626 3.02135C15.6328 3.04386 15.3029 3.09336 14.977 3.22836C14.2419 3.53285 13.6578 4.11687 13.3534 4.85195C13.2184 5.17788 13.1689 5.50779 13.1464 5.83762C13.125 6.15087 13.125 6.52934 13.125 6.96797V7.03198C13.125 7.47062 13.125 7.84914 13.1464 8.16238C13.1689 8.49221 13.2184 8.82212 13.3534 9.14805C13.6578 9.88314 14.2419 10.4672 14.977 10.7716C15.3029 10.9066 15.6328 10.9561 15.9626 10.9787C16.2759 11 16.6543 11 17.093 11H17.157C17.5956 11 17.9741 11 18.2874 10.9787C18.6172 10.9561 18.9471 10.9066 19.2731 10.7716C20.0081 10.4672 20.5922 9.88314 20.8966 9.14805C21.0316 8.82212 21.0811 8.49221 21.1037 8.16238C21.125 7.84913 21.125 7.47064 21.125 7.03199V6.96801C21.125 6.52936 21.125 6.15088 21.1037 5.83762C21.0811 5.50779 21.0316 5.17788 20.8966 4.85195C20.5922 4.11687 20.0081 3.53285 19.2731 3.22836C18.9471 3.09336 18.6172 3.04386 18.2874 3.02135C17.9741 2.99998 17.5956 2.99999 17.157 3ZM15.7423 5.07612C15.7839 5.05889 15.8708 5.03227 16.0988 5.01671C16.3357 5.00054 16.6454 5 17.125 5C17.6046 5 17.9143 5.00054 18.1512 5.01671C18.3792 5.03227 18.4661 5.05889 18.5077 5.07612C18.7527 5.17762 18.9474 5.37229 19.0489 5.61732C19.0661 5.65893 19.0927 5.74576 19.1083 5.97376C19.1245 6.21074 19.125 6.52038 19.125 7C19.125 7.47963 19.1245 7.78926 19.1083 8.02624C19.0927 8.25424 19.0661 8.34107 19.0489 8.38269C18.9474 8.62771 18.7527 8.82239 18.5077 8.92388C18.4661 8.94112 18.3792 8.96774 18.1512 8.98329C17.9143 8.99946 17.6046 9 17.125 9C16.6454 9 16.3357 8.99946 16.0988 8.98329C15.8708 8.96774 15.7839 8.94112 15.7423 8.92388C15.4973 8.82239 15.3026 8.62771 15.2011 8.38269C15.1839 8.34107 15.1573 8.25424 15.1417 8.02624C15.1255 7.78926 15.125 7.47963 15.125 7C15.125 6.52038 15.1255 6.21074 15.1417 5.97376C15.1573 5.74576 15.1839 5.65893 15.2011 5.61732C15.3026 5.37229 15.4973 5.17762 15.7423 5.07612Z" fill="white"/><path fill-rule="evenodd" clip-rule="evenodd" d="M7.09302 13H7.15699C7.59562 13 7.97414 13 8.28738 13.0214C8.61721 13.0439 8.94712 13.0934 9.27305 13.2284C10.0081 13.5328 10.5922 14.1169 10.8966 14.852C11.0316 15.1779 11.0811 15.5078 11.1037 15.8376C11.125 16.1509 11.125 16.5293 11.125 16.968V17.032C11.125 17.4706 11.125 17.8491 11.1037 18.1624C11.0811 18.4922 11.0316 18.8221 10.8966 19.1481C10.5922 19.8831 10.0081 20.4672 9.27305 20.7716C8.94712 20.9066 8.61721 20.9561 8.28738 20.9787C7.97413 21 7.59564 21 7.15699 21H7.09301C6.65436 21 6.27588 21 5.96262 20.9787C5.63279 20.9561 5.30288 20.9066 4.97695 20.7716C4.24187 20.4672 3.65785 19.8831 3.35336 19.1481C3.21836 18.8221 3.16886 18.4922 3.14635 18.1624C3.12498 17.8491 3.12499 17.4707 3.125 17.032V16.968C3.12499 16.5294 3.12498 16.1509 3.14635 15.8376C3.16886 15.5078 3.21836 15.1779 3.35336 14.852C3.65785 14.1169 4.24187 13.5328 4.97695 13.2284C5.30288 13.0934 5.63279 13.0439 5.96262 13.0214C6.27587 13 6.65439 13 7.09302 13ZM6.09876 15.0167C5.87076 15.0323 5.78393 15.0589 5.74232 15.0761C5.49729 15.1776 5.30262 15.3723 5.20112 15.6173C5.18389 15.6589 5.15727 15.7458 5.14171 15.9738C5.12554 16.2107 5.125 16.5204 5.125 17C5.125 17.4796 5.12554 17.7893 5.14171 18.0262C5.15727 18.2542 5.18389 18.3411 5.20112 18.3827C5.30262 18.6277 5.49729 18.8224 5.74232 18.9239C5.78393 18.9411 5.87076 18.9677 6.09876 18.9833C6.33574 18.9995 6.64538 19 7.125 19C7.60463 19 7.91426 18.9995 8.15124 18.9833C8.37924 18.9677 8.46607 18.9411 8.50769 18.9239C8.75271 18.8224 8.94739 18.6277 9.04888 18.3827C9.06612 18.3411 9.09274 18.2542 9.10829 18.0262C9.12446 17.7893 9.125 17.4796 9.125 17C9.125 16.5204 9.12446 16.2107 9.10829 15.9738C9.09274 15.7458 9.06612 15.6589 9.04888 15.6173C8.94739 15.3723 8.75271 15.1776 8.50769 15.0761C8.46607 15.0589 8.37924 15.0323 8.15124 15.0167C7.91426 15.0005 7.60463 15 7.125 15C6.64538 15 6.33574 15.0005 6.09876 15.0167Z" fill="white"/><path fill-rule="evenodd" clip-rule="evenodd" d="M17.093 13H17.157C17.5956 13 17.9741 13 18.2874 13.0214C18.6172 13.0439 18.9471 13.0934 19.2731 13.2284C20.0081 13.5328 20.5922 14.1169 20.8966 14.852C21.0316 15.1779 21.0811 15.5078 21.1037 15.8376C21.125 16.1509 21.125 16.5294 21.125 16.968V17.032C21.125 17.4706 21.125 17.8491 21.1037 18.1624C21.0811 18.4922 21.0316 18.8221 20.8966 19.1481C20.5922 19.8831 20.0081 20.4672 19.2731 20.7716C18.9471 20.9066 18.6172 20.9561 18.2874 20.9787C17.9741 21 17.5956 21 17.157 21H17.093C16.6544 21 16.2759 21 15.9626 20.9787C15.6328 20.9561 15.3029 20.9066 14.977 20.7716C14.2419 20.4672 13.6578 19.8831 13.3534 19.1481C13.2184 18.8221 13.1689 18.4922 13.1464 18.1624C13.125 17.8491 13.125 17.4707 13.125 17.032V16.968C13.125 16.5294 13.125 16.1509 13.1464 15.8376C13.1689 15.5078 13.2184 15.1779 13.3534 14.852C13.6578 14.1169 14.2419 13.5328 14.977 13.2284C15.3029 13.0934 15.6328 13.0439 15.9626 13.0214C16.2759 13 16.6544 13 17.093 13ZM16.0988 15.0167C15.8708 15.0323 15.7839 15.0589 15.7423 15.0761C15.4973 15.1776 15.3026 15.3723 15.2011 15.6173C15.1839 15.6589 15.1573 15.7458 15.1417 15.9738C15.1255 16.2107 15.125 16.5204 15.125 17C15.125 17.4796 15.1255 17.7893 15.1417 18.0262C15.1573 18.2542 15.1839 18.3411 15.2011 18.3827C15.3026 18.6277 15.4973 18.8224 15.7423 18.9239C15.7839 18.9411 15.8708 18.9677 16.0988 18.9833C16.3357 18.9995 16.6454 19 17.125 19C17.6046 19 17.9143 18.9995 18.1512 18.9833C18.3792 18.9677 18.4661 18.9411 18.5077 18.9239C18.7527 18.8224 18.9474 18.6277 19.0489 18.3827C19.0661 18.3411 19.0927 18.2542 19.1083 18.0262C19.1245 17.7893 19.125 17.4796 19.125 17C19.125 16.5204 19.1245 16.2107 19.1083 15.9738C19.0927 15.7458 19.0661 15.6589 19.0489 15.6173C18.9474 15.3723 18.7527 15.1776 18.5077 15.0761C18.4661 15.0589 18.3792 15.0323 18.1512 15.0167C17.9143 15.0005 17.6046 15 17.125 15C16.6454 15 16.3357 15.0005 16.0988 15.0167Z" fill="white"/><path fill-rule="evenodd" clip-rule="evenodd" d="M7.09302 3H7.15698C7.59564 2.99999 7.97413 2.99998 8.28738 3.02135C8.61721 3.04386 8.94712 3.09336 9.27305 3.22836C10.0081 3.53284 10.5922 4.11687 10.8966 4.85195C11.0316 5.17788 11.0811 5.50779 11.1037 5.83762C11.125 6.15088 11.125 6.52936 11.125 6.96801V7.03199C11.125 7.47064 11.125 7.84913 11.1037 8.16238C11.0811 8.49221 11.0316 8.82212 10.8966 9.14805C10.5922 9.88314 10.0081 10.4672 9.27305 10.7716C8.94712 10.9066 8.61721 10.9561 8.28738 10.9787C7.97413 11 7.59564 11 7.15699 11H7.09301C6.65436 11 6.27588 11 5.96262 10.9787C5.63279 10.9561 5.30288 10.9066 4.97695 10.7716C4.24187 10.4672 3.65784 9.88314 3.35336 9.14805C3.21836 8.82212 3.16886 8.49221 3.14635 8.16238C3.12498 7.84913 3.12499 7.47064 3.125 7.03198V6.96802C3.12499 6.52937 3.12498 6.15088 3.14635 5.83762C3.16886 5.50779 3.21836 5.17788 3.35336 4.85195C3.65784 4.11687 4.24187 3.53284 4.97695 3.22836C5.30288 3.09336 5.63279 3.04386 5.96262 3.02135C6.27588 2.99998 6.65437 2.99999 7.09302 3ZM6.09876 5.01671C5.87076 5.03227 5.78393 5.05888 5.74232 5.07612C5.49729 5.17762 5.30262 5.37229 5.20112 5.61732C5.18388 5.65893 5.15727 5.74576 5.14171 5.97376C5.12554 6.21074 5.125 6.52038 5.125 7C5.125 7.47963 5.12554 7.78926 5.14171 8.02624C5.15727 8.25424 5.18388 8.34107 5.20112 8.38268C5.30262 8.62771 5.49729 8.82239 5.74232 8.92388C5.78393 8.94112 5.87076 8.96773 6.09876 8.98329C6.33574 8.99946 6.64538 9 7.125 9C7.60463 9 7.91426 8.99946 8.15124 8.98329C8.37924 8.96773 8.46607 8.94112 8.50768 8.92388C8.75271 8.82239 8.94739 8.62771 9.04888 8.38268C9.06612 8.34107 9.09273 8.25424 9.10829 8.02624C9.12446 7.78926 9.125 7.47963 9.125 7C9.125 6.52038 9.12446 6.21074 9.10829 5.97376C9.09273 5.74576 9.06612 5.65893 9.04888 5.61732C8.94739 5.37229 8.75271 5.17762 8.50768 5.07612C8.46607 5.05888 8.37924 5.03227 8.15124 5.01671C7.91426 5.00054 7.60463 5 7.125 5C6.64538 5 6.33574 5.00054 6.09876 5.01671Z" fill="white"/></svg>