<svg width="25" height="24" viewBox="0 0 25 24" fill="none" xmlns="http://www.w3.org/2000/svg">
<g clip-path="url(#clip0_982_40154)">
<path d="M9.5 20.25C9.5 20.5467 9.41203 20.8367 9.2472 21.0834C9.08238 21.33 8.84811 21.5223 8.57402 21.6358C8.29994 21.7494 7.99834 21.7791 7.70736 21.7212C7.41639 21.6633 7.14912 21.5204 6.93934 21.3107C6.72956 21.1009 6.5867 20.8336 6.52882 20.5426C6.47094 20.2517 6.50065 19.9501 6.61418 19.676C6.72771 19.4019 6.91997 19.1676 7.16664 19.0028C7.41332 18.838 7.70333 18.75 8 18.75C8.39782 18.75 8.77936 18.908 9.06066 19.1893C9.34196 19.4706 9.5 19.8522 9.5 20.25ZM17.75 18.75C17.4533 18.75 17.1633 18.838 16.9166 19.0028C16.67 19.1676 16.4777 19.4019 16.3642 19.676C16.2506 19.9501 16.2209 20.2517 16.2788 20.5426C16.3367 20.8336 16.4796 21.1009 16.6893 21.3107C16.8991 21.5204 17.1664 21.6633 17.4574 21.7212C17.7483 21.7791 18.0499 21.7494 18.324 21.6358C18.5981 21.5223 18.8324 21.33 18.9972 21.0834C19.162 20.8367 19.25 20.5467 19.25 20.25C19.25 19.8522 19.092 19.4706 18.8107 19.1893C18.5294 18.908 18.1478 18.75 17.75 18.75ZM22.1037 6.30469C22.034 6.21017 21.943 6.13335 21.8382 6.08043C21.7333 6.02751 21.6175 5.99996 21.5 6H5.03L4.26969 3.3375C4.17895 3.0247 3.98934 2.74969 3.72925 2.55365C3.46916 2.35761 3.15257 2.25108 2.82687 2.25H1.25C1.05109 2.25 0.860322 2.32902 0.71967 2.46967C0.579018 2.61032 0.5 2.80109 0.5 3C0.5 3.19891 0.579018 3.38968 0.71967 3.53033C0.860322 3.67098 1.05109 3.75 1.25 3.75H2.82687L6.21875 15.6178C6.35449 16.087 6.63858 16.4997 7.02848 16.7939C7.41837 17.0882 7.8931 17.2482 8.38156 17.25H17.3919C17.8734 17.2517 18.3427 17.0981 18.7301 16.812C19.1175 16.5259 19.4024 16.1226 19.5425 15.6619L22.2172 6.97031C22.2516 6.85822 22.2593 6.73961 22.2396 6.62401C22.2199 6.50841 22.1734 6.39904 22.1037 6.30469Z" fill="white"/>
</g>
<defs>
<clipPath id="clip0_982_40154">
<rect width="24" height="24" fill="white" transform="translate(0.5)"/>
</clipPath>
</defs>
</svg>
