<svg xmlns="http://www.w3.org/2000/svg" width="25" height="24" viewBox="0 0 25 24" fill="none"><path d="M5.45471 18.5967C4.86892 18.011 4.84631 17.0838 5.4042 16.5259L17.526 4.4041C18.0839 3.8462 19.0111 3.86882 19.5968 4.4546C20.1826 5.04039 20.2052 5.96752 19.6474 6.52542L7.52552 18.6472C6.96763 19.2051 6.04049 19.1825 5.45471 18.5967Z" fill="black"/><path d="M19.5967 18.5967C20.1825 18.0109 20.2051 17.0838 19.6472 16.5259L7.52538 4.40406C6.96749 3.84617 6.04036 3.86878 5.45457 4.45457C4.86878 5.04036 4.84617 5.96749 5.40406 6.52538L17.5259 18.6472C18.0838 19.2051 19.0109 19.1825 19.5967 18.5967Z" fill="black"/></svg>