<svg xmlns="http://www.w3.org/2000/svg" width="20" height="20" viewBox="0 0 20 20" fill="none"><path fill-rule="evenodd" clip-rule="evenodd" d="M9.99984 1.04169C5.05229 1.04169 1.0415 5.05247 1.0415 10C1.0415 14.9476 5.05229 18.9584 9.99984 18.9584C14.9474 18.9584 18.9582 14.9476 18.9582 10C18.9582 5.05247 14.9474 1.04169 9.99984 1.04169ZM9.14125 13.3586L6.22456 10.4419C5.98049 10.1979 5.98049 9.80219 6.22456 9.5581L9.14125 6.64141C9.38534 6.39734 9.781 6.39734 10.0251 6.64141C10.2692 6.88549 10.2692 7.28122 10.0251 7.52529L8.17539 9.37502H13.3332C13.6783 9.37502 13.9582 9.65485 13.9582 10C13.9582 10.3452 13.6783 10.625 13.3332 10.625H8.17539L10.0251 12.4748C10.2692 12.7189 10.2692 13.1145 10.0251 13.3586C9.781 13.6027 9.38534 13.6027 9.14125 13.3586Z" fill="#8C90CA"/></svg>