<svg width="24" height="24" viewBox="0 0 24 24" fill="none" xmlns="http://www.w3.org/2000/svg">
<path d="M5 14.0001C6.10457 14.0001 7 13.1047 7 12.0001C7 10.8956 6.10457 10.0001 5 10.0001C3.89543 10.0001 3 10.8956 3 12.0001C3 13.1047 3.89543 14.0001 5 14.0001Z" stroke="#5A4CF1" stroke-width="1.5"/>
<path d="M12 14.0001C13.1046 14.0001 14 13.1047 14 12.0001C14 10.8956 13.1046 10.0001 12 10.0001C10.8954 10.0001 10 10.8956 10 12.0001C10 13.1047 10.8954 14.0001 12 14.0001Z" stroke="#5A4CF1" stroke-width="1.5"/>
<path d="M19 14.0001C20.1046 14.0001 21 13.1047 21 12.0001C21 10.8956 20.1046 10.0001 19 10.0001C17.8954 10.0001 17 10.8956 17 12.0001C17 13.1047 17.8954 14.0001 19 14.0001Z" stroke="#5A4CF1" stroke-width="1.5"/>
</svg>
