<svg width="20" height="20" viewBox="0 0 20 20" fill="none" xmlns="http://www.w3.org/2000/svg">
<path fill-rule="evenodd" clip-rule="evenodd" d="M1.04102 9.99999C1.04102 5.05244 5.0518 1.04166 9.99935 1.04166C14.9469 1.04166 18.9577 5.05244 18.9577 9.99999C18.9577 14.9476 14.9469 18.9583 9.99935 18.9583C5.0518 18.9583 1.04102 14.9476 1.04102 9.99999ZM9.99935 8.95832C10.3445 8.95832 10.6243 9.23816 10.6243 9.58332V13.75C10.6243 14.0952 10.3445 14.375 9.99935 14.375C9.65418 14.375 9.37435 14.0952 9.37435 13.75V9.58332C9.37435 9.23816 9.65418 8.95832 9.99935 8.95832ZM10.4723 6.66728C10.7032 6.41071 10.6823 6.01553 10.4258 5.78462C10.1692 5.55371 9.77402 5.57451 9.5431 5.83108L9.53477 5.84034C9.30385 6.09691 9.32468 6.49209 9.58127 6.723C9.83785 6.95391 10.233 6.93311 10.4639 6.67654L10.4723 6.66728Z" fill="#8C90CA"/>
</svg>
