<svg width="239" height="72" viewBox="0 0 239 72" fill="none" xmlns="http://www.w3.org/2000/svg">
<g clip-path="url(#clip0_977_32118)">
<path d="M95.3833 50.2315C95.3833 47.1679 97.752 45.2984 100.904 45.2984C102.411 45.2984 103.595 45.8563 104.329 46.473L103.458 47.256C102.803 46.7274 101.98 46.3555 100.933 46.3555C98.584 46.3555 97.0179 47.8237 97.0179 50.1924C97.0179 52.561 98.5154 54.0782 100.874 54.0782C102.059 54.0782 102.969 53.6867 103.762 53.0113L104.633 53.765C103.654 54.6361 102.431 55.1353 100.816 55.1353C97.7128 55.1353 95.3931 53.3049 95.3931 50.2217L95.3833 50.2315Z" fill="#EAEAEA"/>
<path d="M118.972 45.4745H120.763L124.972 54.9688H123.298L121.125 49.6637C120.675 48.6066 120.274 47.5593 119.882 46.4631H119.804C119.422 47.5691 119.021 48.6066 118.571 49.6637L116.378 54.9688H114.763L118.972 45.4745ZM116.975 51.1123H122.711V52.0813H116.975V51.1123Z" fill="#EAEAEA"/>
<path d="M135.299 53.7356L136.248 52.9036C137.149 53.6083 138.392 54.0782 139.684 54.0782C141.318 54.0782 142.287 53.4615 142.287 52.5317C142.287 51.5627 141.387 51.2494 140.212 50.8579L138.421 50.2511C137.256 49.8693 135.896 49.2038 135.896 47.8041C135.896 46.4044 137.55 45.2788 139.811 45.2788C141.289 45.2788 142.601 45.7682 143.482 46.4534L142.64 47.2266C141.876 46.6785 140.966 46.3359 139.811 46.3359C138.411 46.3359 137.491 46.8742 137.491 47.7258C137.491 48.6459 138.578 48.9786 139.557 49.3016L141.328 49.8889C142.767 50.3587 143.893 51.0145 143.893 52.424C143.893 53.9216 142.268 55.1255 139.654 55.1255C137.902 55.1255 136.385 54.5773 135.299 53.716V53.7356Z" fill="#EAEAEA"/>
<path d="M155.813 45.4745H157.399V54.9688H155.813V45.4745Z" fill="#EAEAEA"/>
<path d="M170.28 45.4745H171.915L176.417 51.4451L177.758 53.4125H177.837C177.758 52.4533 177.631 51.3864 177.631 50.388V45.4745H179.138V54.9688H177.504L173.001 48.9884L171.66 47.0308H171.582C171.66 47.99 171.788 49.0079 171.788 49.9965V54.9688H170.28V45.4745Z" fill="#EAEAEA"/>
<path d="M191.305 50.1826C191.305 47.1385 193.497 45.2984 196.629 45.2984C199.761 45.2984 201.954 47.1483 201.954 50.1826C201.954 53.2168 199.761 55.1353 196.629 55.1353C193.497 55.1353 191.305 53.2168 191.305 50.1826ZM200.31 50.1826C200.31 47.8139 198.851 46.3555 196.629 46.3555C194.407 46.3555 192.949 47.8139 192.949 50.1826C192.949 52.5513 194.407 54.0782 196.629 54.0782C198.851 54.0782 200.31 52.5513 200.31 50.1826Z" fill="#EAEAEA"/>
<path d="M29.7264 46.7765L29.746 63.416C29.746 64.2382 29.0804 64.9331 28.1897 65.0505C27.0935 65.1876 26.1245 64.4241 26.1245 63.416L26.1049 46.9722L24.1179 47.0505L24.1375 59.3736C24.1375 59.9902 23.4719 60.5089 22.5812 60.597C21.485 60.7047 20.516 60.1272 20.516 59.3736L20.4866 46.982L18.5095 47.0505L18.5388 65.3736C18.5388 65.4225 17.8732 66.1859 16.9825 66.3132C15.8863 66.4698 14.9173 65.6182 14.9173 65.2267V46.8744L7.80147 47.0408C1.92871 47.1484 -1.84943 40.8548 0.98907 35.7161L9.78842 19.8205L18.578 3.93473C21.4263 -1.20394 28.7574 -1.33118 31.7819 3.69982L41.1489 19.2724L50.516 34.845C53.5405 39.876 49.9874 46.2969 44.1147 46.4045L35.5013 46.5709V69.6509C35.5013 70.8254 34.8357 71.814 33.945 71.9804C32.8488 72.1859 31.8798 71.0799 31.8798 69.6509V46.7863H29.7362L29.7264 46.7765Z" fill="#FF7900"/>
<path d="M25.8104 43.204C29.789 43.204 33.0143 39.9787 33.0143 36.0001C33.0143 32.0214 29.789 28.7961 25.8104 28.7961C21.8317 28.7961 18.6064 32.0214 18.6064 36.0001C18.6064 39.9787 21.8317 43.204 25.8104 43.204Z" fill="#EAEAEA"/>
<path d="M25.8097 40.7764C28.4477 40.7764 30.5862 38.6379 30.5862 35.9999C30.5862 33.3619 28.4477 31.2234 25.8097 31.2234C23.1717 31.2234 21.0332 33.3619 21.0332 35.9999C21.0332 38.6379 23.1717 40.7764 25.8097 40.7764Z" fill="#14142D"/>
<path d="M68.604 42.2546V16.4438H74.5453V27.9055L86.5355 16.4438H94.5224L83.4523 26.496L95.1293 42.2546H87.4458L79.3609 30.1371L74.5453 34.4536V42.2546H68.604Z" fill="#EAEAEA"/>
<path d="M98.2124 42.2546V16.4438H110.712C113.854 16.4438 116.134 16.6787 117.563 17.1387C118.992 17.5988 120.128 18.4307 120.979 19.6151C121.831 20.7994 122.261 22.1599 122.261 23.6869C122.261 25.6249 121.615 27.2203 120.314 28.4829C119.012 29.7456 117.074 30.5384 114.5 30.8712C115.782 31.527 116.839 32.2513 117.681 33.0343C118.513 33.8174 119.638 35.217 121.057 37.2236L124.65 42.2643H117.553L113.256 36.6461C111.73 34.6395 110.692 33.3769 110.124 32.8484C109.566 32.3296 108.969 31.9674 108.343 31.7717C107.716 31.5759 106.718 31.478 105.358 31.478H104.154V42.2546H98.2124ZM104.154 27.3573H108.548C111.397 27.3573 113.178 27.2497 113.883 27.0441C114.588 26.8288 115.146 26.4666 115.547 25.9479C115.948 25.4291 116.144 24.7831 116.144 24.0099C116.144 23.1387 115.88 22.4438 115.351 21.9055C114.823 21.3671 114.079 21.0343 113.11 20.8973C112.63 20.8386 111.181 20.8092 108.774 20.8092H104.144V27.3573H104.154Z" fill="#EAEAEA"/>
<path d="M154.376 42.2546H147.916L145.351 36.3916H133.596L131.169 42.2546H124.875L136.327 16.4438H142.601L154.376 42.2546ZM143.443 32.0457L139.391 22.4634L135.417 32.0457H143.443Z" fill="#EAEAEA"/>
<path d="M157.605 42.2546V16.4438H163.547V27.9055L175.537 16.4438H183.524L172.454 26.496L184.131 42.2546H176.447L168.362 30.1371L163.547 34.4536V42.2546H157.605Z" fill="#EAEAEA"/>
<path d="M187.185 42.2546V16.4438H208.983V20.8092H193.117V26.5351H207.877V30.881H193.117V37.9087H209.541V42.2546H187.175H187.185Z" fill="#EAEAEA"/>
<path d="M214.64 42.2546V16.4438H220.415L232.444 33.6803V16.4438H237.964V42.2546H232.003L220.15 25.4193V42.2546H214.64Z" fill="#EAEAEA"/>
</g>
<defs>
<clipPath id="clip0_977_32118">
<rect width="238.5" height="72" fill="white"/>
</clipPath>
</defs>
</svg>
