<svg width="32" height="32" viewBox="0 0 32 32" fill="none" xmlns="http://www.w3.org/2000/svg">
<g filter="url(#filter0_d_982_46949)">
<path fill-rule="evenodd" clip-rule="evenodd" d="M4.34481 12.8778C4.21489 13.199 4.26234 13.574 4.48715 13.8559L5.32747 14.9096C5.52539 15.1578 5.59078 15.4865 5.5029 15.7916L5.12979 17.0867C5.00327 17.5258 5.19725 17.9941 5.59725 18.2152L6.77685 18.8672C7.05469 19.0207 7.24089 19.2994 7.27643 19.6148L7.42734 20.9541C7.47851 21.4083 7.83693 21.7667 8.29109 21.8179L9.63038 21.9688C9.94583 22.0043 10.2245 22.1905 10.3781 22.4684L11.03 23.648C11.2511 24.048 11.7194 24.242 12.1585 24.1154L13.4536 23.7423C13.7587 23.6545 14.0874 23.7198 14.3356 23.9178L15.3893 24.7581C15.7466 25.043 16.2535 25.043 16.6109 24.7581L17.6646 23.9178C17.9128 23.7198 18.2415 23.6545 18.5465 23.7423L19.8416 24.1154C20.2808 24.242 20.7491 24.048 20.9702 23.648L21.6221 22.4684C21.7757 22.1905 22.0543 22.0043 22.3698 21.9688L23.7091 21.8179C24.1632 21.7667 24.5217 21.4083 24.5728 20.9541L24.7237 19.6148C24.7593 19.2994 24.9455 19.0207 25.2233 18.8672L26.4029 18.2152C26.8029 17.9941 26.9969 17.5258 26.8704 17.0867L26.4973 15.7916C26.4094 15.4865 26.4748 15.1578 26.6727 14.9096L27.513 13.8559C27.7378 13.574 27.7853 13.199 27.6554 12.8778H4.34481Z" fill="#9431C6"/>
<path d="M15.3892 1.24241C15.7466 0.957458 16.2534 0.957458 16.6108 1.24241L17.6645 2.08273C17.9127 2.28065 18.2414 2.34604 18.5464 2.25816L19.8415 1.88505C20.2807 1.75853 20.749 1.95251 20.9701 2.35251L21.622 3.53211C21.7756 3.80995 22.0543 3.99615 22.3697 4.03169L23.709 4.1826C24.1632 4.23377 24.5216 4.59219 24.5728 5.04635L24.7237 6.38564C24.7592 6.70109 24.9454 6.97976 25.2232 7.13332L26.4028 7.78527C26.8028 8.00634 26.9968 8.47464 26.8703 8.91381L26.4972 10.2089C26.4093 10.5139 26.4747 10.8427 26.6726 11.0909L27.5129 12.1446C27.7979 12.5019 27.7979 13.0088 27.5129 13.3661L26.6726 14.4198C26.4747 14.668 26.4093 14.9967 26.4972 15.3018L26.8703 16.5969C26.9968 17.0361 26.8028 17.5044 26.4028 17.7254L25.2232 18.3774C24.9454 18.5309 24.7592 18.8096 24.7237 19.1251L24.5728 20.4643C24.5216 20.9185 24.1632 21.2769 23.709 21.3281L22.3697 21.479C22.0543 21.5145 21.7756 21.7007 21.622 21.9786L20.9701 23.1582C20.749 23.5582 20.2807 23.7522 19.8415 23.6256L18.5464 23.2525C18.2414 23.1647 17.9127 23.23 17.6645 23.428L16.6108 24.2683C16.2534 24.5532 15.7466 24.5532 15.3892 24.2683L14.3355 23.428C14.0873 23.23 13.7586 23.1647 13.4536 23.2525L12.1585 23.6256C11.7193 23.7522 11.251 23.5582 11.0299 23.1582L10.378 21.9786C10.2244 21.7007 9.94575 21.5145 9.6303 21.479L8.291 21.3281C7.83684 21.2769 7.47842 20.9185 7.42725 20.4643L7.27634 19.125C7.2408 18.8096 7.0546 18.5309 6.77676 18.3774L5.59716 17.7254C5.19716 17.5044 5.00318 17.0361 5.12971 16.5969L5.50281 15.3018C5.59069 14.9967 5.52531 14.668 5.32738 14.4198L4.48706 13.3661C4.20211 13.0088 4.20211 12.5019 4.48706 12.1446L5.32738 11.0909C5.52531 10.8427 5.59069 10.5139 5.50281 10.2089L5.1297 8.91381C5.00318 8.47464 5.19716 8.00634 5.59716 7.78526L6.77676 7.13332C7.0546 6.97976 7.2408 6.70109 7.27634 6.38564L7.42725 5.04635C7.47842 4.59219 7.83684 4.23377 8.291 4.1826L9.63029 4.03169C9.94575 3.99615 10.2244 3.80994 10.378 3.53211L11.0299 2.35251C11.251 1.95251 11.7193 1.75853 12.1585 1.88505L13.4536 2.25816C13.7586 2.34604 14.0873 2.28065 14.3355 2.08273L15.3892 1.24241Z" fill="url(#paint0_linear_982_46949)"/>
<ellipse cx="15.9999" cy="12.7553" rx="9.18367" ry="9.18367" transform="rotate(-180 15.9999 12.7553)" fill="url(#paint1_linear_982_46949)"/>
<circle cx="15.9987" cy="12.7553" r="9.06122" fill="url(#paint2_linear_982_46949)"/>
<g filter="url(#filter1_i_982_46949)">
<path d="M15.9385 21.2043C20.571 21.2043 24.3263 17.449 24.3263 12.8166C24.3263 8.18414 20.571 4.42882 15.9385 4.42882C11.3061 4.42882 7.55078 8.18414 7.55078 12.8166C7.55078 17.449 11.3061 21.2043 15.9385 21.2043Z" fill="#181A32"/>
</g>
<g filter="url(#filter2_f_982_46949)">
<path d="M20.1176 9.47944C20.117 9.47894 20.1164 9.47835 20.1158 9.4777C20.0987 9.45661 20.0776 9.43918 20.0536 9.42644C20.0292 9.4135 20.0025 9.40568 19.975 9.40345C19.9475 9.40122 19.9198 9.40464 19.8937 9.41348C19.8676 9.42233 19.8436 9.43642 19.8231 9.45489C19.6517 9.61114 19.4926 9.7804 19.3473 9.96117C19.2832 10.0438 19.1902 10.0992 19.0869 10.1162C18.9837 10.1332 18.8779 10.1105 18.7906 10.0528C18.7447 10.0211 18.7059 9.98017 18.6766 9.93272C18.6473 9.88526 18.6281 9.83225 18.6202 9.77701C18.6123 9.72177 18.6159 9.6655 18.6308 9.61173C18.6456 9.55795 18.6715 9.50783 18.7066 9.46451C18.8669 9.26403 19.0417 9.07553 19.2294 8.90051C19.2511 8.8807 19.2681 8.85643 19.2795 8.82936C19.2908 8.8023 19.2961 8.77309 19.2951 8.74377C19.294 8.71444 19.2866 8.6857 19.2733 8.65952C19.2601 8.63335 19.2413 8.61037 19.2183 8.59218C18.2973 7.87777 17.1649 7.49004 15.9994 7.49004C14.834 7.49004 13.7016 7.87777 12.7806 8.59218C12.7576 8.61037 12.7388 8.63335 12.7255 8.65952C12.7122 8.6857 12.7048 8.71444 12.7038 8.74377C12.7027 8.77309 12.708 8.8023 12.7194 8.82936C12.7307 8.85643 12.7478 8.8807 12.7694 8.90051C12.954 9.07247 13.126 9.25739 13.2842 9.45387C13.348 9.53155 13.3814 9.62983 13.3782 9.73035C13.3749 9.83087 13.3352 9.92678 13.2664 10.0002C13.2264 10.0415 13.178 10.0738 13.1245 10.095C13.071 10.1161 13.0136 10.1256 12.9561 10.1228C12.8987 10.1201 12.8425 10.1051 12.7912 10.0788C12.74 10.0526 12.695 10.0158 12.6591 9.97079C12.5112 9.78609 12.3489 9.61341 12.1738 9.45438C12.1532 9.43602 12.1292 9.42203 12.1031 9.41328C12.077 9.40452 12.0494 9.40118 12.022 9.40345C11.9946 9.40573 11.9679 9.41357 11.9436 9.4265C11.9193 9.43944 11.8979 9.45719 11.8807 9.47868C11.1386 10.4095 10.7344 11.5648 10.7344 12.7553C10.7344 13.9459 11.1386 15.1012 11.8807 16.032C11.898 16.0535 11.9194 16.0713 11.9438 16.0843C11.9681 16.0972 11.9949 16.105 12.0224 16.1072C12.0498 16.1095 12.0775 16.1061 12.1036 16.0972C12.1297 16.0884 12.1538 16.0743 12.1743 16.0558C12.3456 15.8996 12.5047 15.7303 12.65 15.5495C12.7142 15.4669 12.8072 15.4115 12.9104 15.3945C13.0136 15.3775 13.1195 15.4002 13.2067 15.4579C13.2527 15.4895 13.2917 15.5303 13.3211 15.5777C13.3506 15.6251 13.37 15.6781 13.378 15.7333C13.386 15.7886 13.3826 15.8449 13.3678 15.8987C13.353 15.9526 13.3273 16.0028 13.2923 16.0462C13.1319 16.2467 12.9572 16.4352 12.7694 16.6102C12.7478 16.63 12.7307 16.6543 12.7194 16.6813C12.708 16.7084 12.7027 16.7376 12.7038 16.7669C12.7048 16.7962 12.7122 16.825 12.7255 16.8512C12.7388 16.8773 12.7576 16.9003 12.7806 16.9185C13.7016 17.6329 14.834 18.0207 15.9994 18.0207C17.1649 18.0207 18.2973 17.6329 19.2183 16.9185C19.2413 16.9003 19.2601 16.8773 19.2733 16.8512C19.2866 16.825 19.294 16.7962 19.2951 16.7669C19.2961 16.7376 19.2908 16.7084 19.2795 16.6813C19.2681 16.6543 19.2511 16.63 19.2294 16.6102C19.0417 16.4352 18.8669 16.2467 18.7066 16.0462C18.6718 16.0028 18.6463 15.9526 18.6318 15.8989C18.6172 15.8452 18.6138 15.7891 18.6219 15.7341C18.63 15.679 18.6493 15.6262 18.6787 15.5789C18.7081 15.5317 18.7468 15.491 18.7926 15.4594C18.8799 15.4017 18.9857 15.379 19.089 15.396C19.1922 15.413 19.2852 15.4684 19.3494 15.551C19.4947 15.7318 19.6537 15.9011 19.8251 16.0573C19.8456 16.0758 19.8696 16.0899 19.8957 16.0987C19.9219 16.1076 19.9495 16.111 19.977 16.1088C20.0045 16.1065 20.0312 16.0987 20.0556 16.0858C20.0799 16.0728 20.1014 16.0551 20.1186 16.0335C20.8608 15.1028 21.265 13.9475 21.265 12.7569C21.265 11.5667 20.8611 10.4118 20.1194 9.48119C20.1189 9.48054 20.1183 9.47994 20.1176 9.47944ZM13.6567 10.7454C13.7578 10.7193 13.865 10.7324 13.9569 10.782C14.0488 10.8317 14.1185 10.9143 14.1521 11.0132C14.2486 11.2897 14.322 11.5737 14.3718 11.8623C14.3841 11.9213 14.3832 11.9823 14.369 12.0408C14.3547 12.0994 14.3276 12.1541 14.2896 12.2008C14.2516 12.2476 14.2036 12.2853 14.1492 12.3112C14.0948 12.337 14.0352 12.3504 13.975 12.3503C13.8731 12.3507 13.7748 12.3125 13.6997 12.2436C13.6247 12.1746 13.5784 12.0798 13.5701 11.9782C13.5509 11.7534 13.5139 11.5271 13.4082 11.3281C13.3793 11.2746 13.3628 11.2152 13.36 11.1543C13.3572 11.0935 13.3682 11.0329 13.3921 10.9769C13.4159 10.9209 13.4521 10.871 13.4979 10.8309C13.5437 10.7908 13.598 10.7616 13.6567 10.7454ZM14.3718 13.6459C14.3218 13.94 14.2468 14.2293 14.1476 14.5106C14.1283 14.565 14.0977 14.6146 14.0578 14.6561C14.0179 14.6977 13.9696 14.7302 13.916 14.7516C13.8625 14.773 13.8051 14.7827 13.7475 14.7801C13.6899 14.7775 13.6336 14.7626 13.5823 14.7364C13.4937 14.6892 13.4254 14.6114 13.3898 14.5176C13.3543 14.4237 13.354 14.3202 13.3889 14.2261C13.4716 13.9893 13.534 13.7459 13.5757 13.4986C13.5851 13.4419 13.6065 13.3879 13.6384 13.3401C13.6703 13.2924 13.712 13.2519 13.7608 13.2215C13.8095 13.1911 13.8641 13.1714 13.921 13.1638C13.978 13.1561 14.0359 13.1606 14.0909 13.1771C14.1867 13.2077 14.2681 13.2722 14.3198 13.3585C14.3715 13.4448 14.39 13.5469 14.3718 13.6459ZM18.4166 14.7364C18.3652 14.7626 18.3089 14.7775 18.2513 14.7801C18.1938 14.7827 18.1363 14.773 18.0828 14.7516C18.0293 14.7302 17.981 14.6977 17.941 14.6561C17.9011 14.6146 17.8705 14.565 17.8513 14.5106C17.7521 14.2293 17.6771 13.94 17.6271 13.6459C17.609 13.547 17.6275 13.4448 17.6792 13.3586C17.7309 13.2723 17.8122 13.2078 17.908 13.1771C17.963 13.1606 18.0209 13.1561 18.0778 13.1638C18.1347 13.1714 18.1894 13.1911 18.2381 13.2215C18.2868 13.2519 18.3285 13.2924 18.3604 13.3401C18.3924 13.3879 18.4137 13.4419 18.4232 13.4986C18.4648 13.7459 18.5273 13.9893 18.6099 14.2261C18.6449 14.3202 18.6446 14.4237 18.609 14.5176C18.5735 14.6114 18.5051 14.6892 18.4166 14.7364ZM18.5892 11.3281C18.4834 11.5271 18.4465 11.7534 18.4272 11.9782C18.4221 12.0377 18.4038 12.0954 18.3738 12.147C18.3437 12.1986 18.3026 12.243 18.2534 12.2768C18.2042 12.3107 18.1482 12.3333 18.0892 12.3429C18.0303 12.3525 17.9699 12.349 17.9125 12.3326C17.8158 12.3031 17.7333 12.2391 17.6806 12.1528C17.6279 12.0665 17.6087 11.9638 17.6266 11.8643C17.676 11.5751 17.7497 11.2906 17.8467 11.0137C17.8801 10.9146 17.9498 10.8319 18.0417 10.7821C18.1336 10.7323 18.241 10.7192 18.3422 10.7454C18.4007 10.7618 18.4548 10.7911 18.5005 10.8313C18.5461 10.8714 18.5821 10.9214 18.6058 10.9773C18.6295 11.0333 18.6404 11.0939 18.6375 11.1546C18.6346 11.2154 18.6181 11.2747 18.5892 11.3281Z" fill="url(#paint3_linear_982_46949)" fill-opacity="0.32"/>
</g>
<g filter="url(#filter3_d_982_46949)">
<path d="M16.7569 15.0664L16.7607 18.2915C16.7607 18.4509 16.6317 18.5856 16.459 18.6084C16.2465 18.6349 16.0587 18.487 16.0587 18.2915L16.0549 15.1043L15.6698 15.1195L15.6736 17.508C15.6736 17.6275 15.5446 17.7281 15.3719 17.7452C15.1595 17.766 14.9716 17.6541 14.9716 17.508L14.966 15.1062L14.5827 15.1195L14.5884 18.671C14.5884 18.6805 14.4594 18.8284 14.2868 18.8531C14.0743 18.8835 13.8865 18.7184 13.8865 18.6425V15.0853L12.5072 15.1176C11.3689 15.1384 10.6366 13.9186 11.1868 12.9225L12.8923 9.84154L14.596 6.76243C15.1481 5.76641 16.5691 5.74175 17.1553 6.7169L18.9709 9.7353L20.7865 12.7537C21.3727 13.7288 20.684 14.9734 19.5457 14.9943L17.8762 15.0265V19.5C17.8762 19.7277 17.7472 19.9193 17.5746 19.9516C17.3621 19.9914 17.1743 19.777 17.1743 19.5V15.0682H16.7588L16.7569 15.0664Z" fill="url(#paint4_linear_982_46949)"/>
</g>
<path d="M15.9979 14.3739C16.769 14.3739 17.3942 13.7488 17.3942 12.9776C17.3942 12.2064 16.769 11.5813 15.9979 11.5813C15.2267 11.5813 14.6016 12.2064 14.6016 12.9776C14.6016 13.7488 15.2267 14.3739 15.9979 14.3739Z" fill="#EAEAEA"/>
<path d="M15.9961 13.9034C16.5074 13.9034 16.922 13.4889 16.922 12.9775C16.922 12.4662 16.5074 12.0517 15.9961 12.0517C15.4848 12.0517 15.0703 12.4662 15.0703 12.9775C15.0703 13.4889 15.4848 13.9034 15.9961 13.9034Z" fill="#14142D"/>
</g>
<defs>
<filter id="filter0_d_982_46949" x="0.25" y="0.250244" width="31.5" height="31.5" filterUnits="userSpaceOnUse" color-interpolation-filters="sRGB">
<feFlood flood-opacity="0" result="BackgroundImageFix"/>
<feColorMatrix in="SourceAlpha" type="matrix" values="0 0 0 0 0 0 0 0 0 0 0 0 0 0 0 0 0 0 127 0" result="hardAlpha"/>
<feOffset dy="3"/>
<feGaussianBlur stdDeviation="1.875"/>
<feColorMatrix type="matrix" values="0 0 0 0 0.00392157 0 0 0 0 0.0196078 0 0 0 0 0.2 0 0 0 0.08 0"/>
<feBlend mode="normal" in2="BackgroundImageFix" result="effect1_dropShadow_982_46949"/>
<feBlend mode="normal" in="SourceGraphic" in2="effect1_dropShadow_982_46949" result="shape"/>
</filter>
<filter id="filter1_i_982_46949" x="7.55078" y="4.42882" width="16.7773" height="16.7755" filterUnits="userSpaceOnUse" color-interpolation-filters="sRGB">
<feFlood flood-opacity="0" result="BackgroundImageFix"/>
<feBlend mode="normal" in="SourceGraphic" in2="BackgroundImageFix" result="shape"/>
<feColorMatrix in="SourceAlpha" type="matrix" values="0 0 0 0 0 0 0 0 0 0 0 0 0 0 0 0 0 0 127 0" result="hardAlpha"/>
<feOffset/>
<feGaussianBlur stdDeviation="0.979592"/>
<feComposite in2="hardAlpha" operator="arithmetic" k2="-1" k3="1"/>
<feColorMatrix type="matrix" values="0 0 0 0 0 0 0 0 0 0 0 0 0 0 0 0 0 0 0.6 0"/>
<feBlend mode="normal" in2="shape" result="effect1_innerShadow_982_46949"/>
</filter>
<filter id="filter2_f_982_46949" x="4.85682" y="1.61249" width="22.2864" height="22.2857" filterUnits="userSpaceOnUse" color-interpolation-filters="sRGB">
<feFlood flood-opacity="0" result="BackgroundImageFix"/>
<feBlend mode="normal" in="SourceGraphic" in2="BackgroundImageFix" result="shape"/>
<feGaussianBlur stdDeviation="2.93878" result="effect1_foregroundBlur_982_46949"/>
</filter>
<filter id="filter3_d_982_46949" x="8.06122" y="4.04106" width="15.8776" height="19.8337" filterUnits="userSpaceOnUse" color-interpolation-filters="sRGB">
<feFlood flood-opacity="0" result="BackgroundImageFix"/>
<feColorMatrix in="SourceAlpha" type="matrix" values="0 0 0 0 0 0 0 0 0 0 0 0 0 0 0 0 0 0 127 0" result="hardAlpha"/>
<feOffset dy="0.979592"/>
<feGaussianBlur stdDeviation="1.46939"/>
<feComposite in2="hardAlpha" operator="out"/>
<feColorMatrix type="matrix" values="0 0 0 0 0 0 0 0 0 0 0 0 0 0 0 0 0 0 0.25 0"/>
<feBlend mode="normal" in2="BackgroundImageFix" result="effect1_dropShadow_982_46949"/>
<feBlend mode="normal" in="SourceGraphic" in2="effect1_dropShadow_982_46949" result="shape"/>
</filter>
<linearGradient id="paint0_linear_982_46949" x1="16" y1="0.755347" x2="16" y2="24.7553" gradientUnits="userSpaceOnUse">
<stop stop-color="#FACE6D"/>
<stop offset="0.228865" stop-color="#F3805F"/>
<stop offset="0.51526" stop-color="#DD6FB3"/>
<stop offset="0.750843" stop-color="#DB90E0"/>
<stop offset="1" stop-color="#B440E0"/>
</linearGradient>
<linearGradient id="paint1_linear_982_46949" x1="15.9999" y1="3.57167" x2="15.9999" y2="21.939" gradientUnits="userSpaceOnUse">
<stop stop-opacity="0.06"/>
<stop offset="1" stop-opacity="0"/>
</linearGradient>
<linearGradient id="paint2_linear_982_46949" x1="15.9987" y1="3.69412" x2="15.9987" y2="21.8166" gradientUnits="userSpaceOnUse">
<stop stop-color="#AB38E3"/>
<stop offset="0.481707" stop-color="#DD3A6A"/>
<stop offset="1" stop-color="#FBC844"/>
</linearGradient>
<linearGradient id="paint3_linear_982_46949" x1="15.9997" y1="7.49004" x2="15.9997" y2="18.0207" gradientUnits="userSpaceOnUse">
<stop stop-color="#FACE6D"/>
<stop offset="0.228865" stop-color="#F3805F"/>
<stop offset="0.51526" stop-color="#DF6EAE"/>
<stop offset="0.750843" stop-color="#DA8ADB"/>
<stop offset="1" stop-color="#B94FE7"/>
</linearGradient>
<linearGradient id="paint4_linear_982_46949" x1="16" y1="6.00024" x2="16" y2="19.9564" gradientUnits="userSpaceOnUse">
<stop stop-color="#FACE6D"/>
<stop offset="0.228865" stop-color="#F3805F"/>
<stop offset="0.51526" stop-color="#DF6EAE"/>
<stop offset="0.750843" stop-color="#DA8ADB"/>
<stop offset="1" stop-color="#B94FE7"/>
</linearGradient>
</defs>
</svg>
