<svg width="24" height="24" viewBox="0 0 24 24" fill="none" xmlns="http://www.w3.org/2000/svg">
<path d="M23.6408 14.903C22.0379 21.3316 15.5261 25.244 9.09602 23.6409C2.66858 22.0381 -1.24421 15.5266 0.359461 9.09835C1.96163 2.66898 8.47345 -1.24377 14.9016 0.358976C21.3313 1.96173 25.2437 8.47398 23.6408 14.903Z" fill="#F29B49"/>
<path d="M23.6408 14.903C22.0379 21.3316 15.5261 25.244 9.09602 23.6409C2.66858 22.0381 -1.24421 15.5266 0.359461 9.09835C1.96163 2.66898 8.47345 -1.24377 14.9016 0.358976C21.3313 1.96173 25.2437 8.47398 23.6408 14.903Z" fill="white" fill-opacity="0.2"/>
<g filter="url(#filter0_i_977_33424)">
<path d="M21.7007 14.4191C20.3649 19.7763 14.9384 23.0365 9.58001 21.7006C4.22382 20.365 0.963158 14.9388 2.29955 9.58198C3.63469 4.22423 9.06121 0.963634 14.418 2.29925C19.7761 3.63486 23.0364 9.06168 21.7007 14.4191Z" fill="#F29B49"/>
</g>
<path d="M6.99299 14.621L5.2575 12.3414V14.621H4V9.45868H5.2575V11.7236L6.97828 9.45868H8.45639L6.45616 11.9884L8.52993 14.621H6.99299Z" fill="white"/>
<path d="M14.2658 13.4049C14.2658 13.742 14.1769 14.0545 13.9992 14.3425C13.8276 14.6244 13.5702 14.8573 13.2271 15.0411C12.89 15.2188 12.4886 15.3169 12.0229 15.3353V16.0799H11.4346V15.3261C10.785 15.2709 10.261 15.0779 9.86269 14.747C9.46436 14.4099 9.25294 13.9534 9.22843 13.3773H10.9014C10.9382 13.745 11.1159 13.981 11.4346 14.0851V12.6328C10.9566 12.5102 10.5736 12.3907 10.2855 12.2743C10.0036 12.1578 9.75545 11.9709 9.54097 11.7135C9.32648 11.4562 9.21924 11.1038 9.21924 10.6564C9.21924 10.0988 9.42453 9.65142 9.83512 9.31437C10.2518 8.97732 10.785 8.78735 11.4346 8.74445V7.99988H12.0229V8.74445C12.6663 8.79347 13.175 8.98038 13.5488 9.30517C13.9226 9.62997 14.131 10.0804 14.1739 10.6564H12.4917C12.4549 10.3255 12.2986 10.111 12.0229 10.013V11.4378C12.5315 11.5787 12.9237 11.7043 13.1995 11.8147C13.4752 11.925 13.7204 12.1088 13.9349 12.3662C14.1555 12.6174 14.2658 12.9637 14.2658 13.4049ZM10.883 10.5829C10.883 10.7361 10.929 10.8648 11.0209 10.969C11.119 11.0731 11.2569 11.1651 11.4346 11.2447V9.96702C11.263 9.99766 11.1282 10.0651 11.0301 10.1692C10.9321 10.2673 10.883 10.4052 10.883 10.5829ZM12.0229 14.1127C12.2067 14.0821 12.3507 14.0085 12.4549 13.8921C12.5652 13.7757 12.6204 13.6317 12.6204 13.4601C12.6204 13.3007 12.5683 13.172 12.4641 13.074C12.366 12.9698 12.219 12.881 12.0229 12.8074V14.1127Z" fill="white"/>
<path d="M14.9551 12.0435C14.9551 11.5337 15.0654 11.0802 15.286 10.6831C15.5066 10.2811 15.813 9.96978 16.2052 9.74916C16.6023 9.52365 17.0509 9.41089 17.551 9.41089C18.1638 9.41089 18.6883 9.57267 19.1247 9.89624C19.561 10.2198 19.8527 10.661 19.9998 11.2199H18.6173C18.5143 11.0042 18.3672 10.84 18.176 10.7272C17.9897 10.6145 17.7765 10.5581 17.5363 10.5581C17.149 10.5581 16.8352 10.6929 16.595 10.9625C16.3547 11.2322 16.2346 11.5925 16.2346 12.0435C16.2346 12.4946 16.3547 12.8549 16.595 13.1245C16.8352 13.3942 17.149 13.529 17.5363 13.529C17.7765 13.529 17.9897 13.4726 18.176 13.3599C18.3672 13.2471 18.5143 13.0829 18.6173 12.8672H19.9998C19.8527 13.4261 19.561 13.8673 19.1247 14.1908C18.6883 14.5095 18.1638 14.6688 17.551 14.6688C17.0509 14.6688 16.6023 14.5585 16.2052 14.3379C15.813 14.1124 15.5066 13.8011 15.286 13.404C15.0654 13.0069 14.9551 12.5534 14.9551 12.0435Z" fill="white"/>
<defs>
<filter id="filter0_i_977_33424" x="1.5" y="2" width="20.5" height="20.75" filterUnits="userSpaceOnUse" color-interpolation-filters="sRGB">
<feFlood flood-opacity="0" result="BackgroundImageFix"/>
<feBlend mode="normal" in="SourceGraphic" in2="BackgroundImageFix" result="shape"/>
<feColorMatrix in="SourceAlpha" type="matrix" values="0 0 0 0 0 0 0 0 0 0 0 0 0 0 0 0 0 0 127 0" result="hardAlpha"/>
<feOffset dx="-0.5" dy="0.75"/>
<feGaussianBlur stdDeviation="0.5"/>
<feComposite in2="hardAlpha" operator="arithmetic" k2="-1" k3="1"/>
<feColorMatrix type="matrix" values="0 0 0 0 0 0 0 0 0 0 0 0 0 0 0 0 0 0 0.16 0"/>
<feBlend mode="normal" in2="shape" result="effect1_innerShadow_977_33424"/>
</filter>
</defs>
</svg>
