<svg width="85" height="84" viewBox="0 0 85 84" fill="none" xmlns="http://www.w3.org/2000/svg">
<path d="M82.7546 52.1674C77.1444 74.6675 54.353 88.3608 31.8478 82.7499C9.35176 77.1403 -4.34301 54.35 1.26984 31.8512C6.87743 9.34836 29.6688 -4.34626 52.1674 1.26336C74.6713 6.87298 88.3648 29.6659 82.7546 52.1674Z" fill="#EF8E8B"/>
<path d="M7.62186 33.4358L7.62227 33.4342C12.3555 14.4401 31.5935 2.88075 50.5836 7.61559L50.584 7.61568C69.579 12.3506 81.138 31.5899 76.4024 50.5835C71.6671 69.5747 52.4293 81.1341 33.4315 76.3977C14.4436 71.6627 2.88441 52.4257 7.62186 33.4358Z" stroke="white" stroke-opacity="0.24" stroke-width="13.0934"/>
<g filter="url(#filter0_i_982_40308)">
<path d="M77.8925 50.9508C72.9502 70.7722 52.8721 82.8352 33.0461 77.8923C13.2281 72.9505 1.16369 52.8736 6.10834 33.0533C11.0484 13.2296 31.1265 1.16545 50.9467 6.10721C70.7716 11.049 82.8349 31.1282 77.8925 50.9508Z" fill="#EF8E8B"/>
</g>
<defs>
<filter id="filter0_i_982_40308" x="2.81777" y="5" width="76.1822" height="78.3645" filterUnits="userSpaceOnUse" color-interpolation-filters="sRGB">
<feFlood flood-opacity="0" result="BackgroundImageFix"/>
<feBlend mode="normal" in="SourceGraphic" in2="BackgroundImageFix" result="shape"/>
<feColorMatrix in="SourceAlpha" type="matrix" values="0 0 0 0 0 0 0 0 0 0 0 0 0 0 0 0 0 0 127 0" result="hardAlpha"/>
<feOffset dx="-2.18223" dy="4.36447"/>
<feGaussianBlur stdDeviation="2.18223"/>
<feComposite in2="hardAlpha" operator="arithmetic" k2="-1" k3="1"/>
<feColorMatrix type="matrix" values="0 0 0 0 0 0 0 0 0 0 0 0 0 0 0 0 0 0 0.16 0"/>
<feBlend mode="normal" in2="shape" result="effect1_innerShadow_982_40308"/>
</filter>
</defs>
</svg>
